<svg width="207" height="56" viewBox="0 0 207 56" fill="none" xmlns="http://www.w3.org/2000/svg">
<g clip-path="url(#clip0_157_1413)">
<path d="M55.9495 14.5141H54.4841C54.3998 14.5141 54.3189 14.4811 54.2587 14.4222C54.1984 14.3632 54.1636 14.283 54.1617 14.1987V9.79873C54.1607 9.75735 54.1687 9.71624 54.1852 9.67826C54.2016 9.64028 54.2261 9.60632 54.257 9.57873C54.3179 9.51941 54.3991 9.48536 54.4841 9.4834H55.9495C56.2936 9.48539 56.6342 9.55257 56.9533 9.6814C57.2594 9.81149 57.5398 9.99526 57.7813 10.2241C58.0139 10.4572 58.1983 10.7339 58.324 11.0384C58.4498 11.3429 58.5143 11.6693 58.514 11.9987C58.5134 12.3306 58.4409 12.6583 58.3015 12.9594C58.1718 13.2587 57.9823 13.5282 57.7446 13.7514C57.5083 13.9867 57.2266 14.1713 56.9167 14.2941C56.6111 14.4279 56.2829 14.5026 55.9495 14.5141ZM54.8211 13.8687H55.9642C56.4624 13.865 56.941 13.6739 57.305 13.3334C57.4794 13.1583 57.6231 12.955 57.73 12.7321C57.8319 12.514 57.8844 12.2761 57.8838 12.0354C57.8864 11.7827 57.8339 11.5324 57.73 11.3021C57.6268 11.0788 57.4855 10.8753 57.3123 10.7007C56.9434 10.3422 56.4491 10.1422 55.9348 10.1434H54.8211V13.8687Z" fill="#0163A6"/>
<path d="M60.9685 14.6169C60.8001 14.6278 60.6313 14.6278 60.4629 14.6169C60.1778 14.5756 59.9024 14.4838 59.6496 14.3455C59.4071 14.2321 59.2143 14.0339 59.1074 13.7882C59.0342 13.5682 59.2686 13.2822 59.4958 13.3995C59.5503 13.4347 59.5955 13.4825 59.6276 13.5389C59.8734 13.7982 60.2032 13.9619 60.5582 14.0009C60.8345 14.0491 61.1171 14.0491 61.3935 14.0009C61.549 13.9845 61.6979 13.9287 61.8261 13.8389C61.9542 13.7492 62.0575 13.6282 62.1262 13.4875C62.1775 13.3404 62.1775 13.1801 62.1262 13.0329C61.9796 12.6002 61.4374 12.4389 60.9758 12.3435C60.6676 12.2847 60.3658 12.1963 60.0746 12.0795C59.7554 11.9763 59.4813 11.7667 59.2979 11.4855C59.2091 11.3041 59.1586 11.1062 59.1498 10.9042C59.141 10.7023 59.174 10.5008 59.2466 10.3122C59.3972 10.0291 59.6273 9.79627 59.9086 9.64249C60.1898 9.48872 60.5099 9.42072 60.8293 9.44688C61.1544 9.44485 61.4771 9.502 61.7818 9.61555C61.9394 9.65838 62.0862 9.73411 62.2124 9.83775C62.3387 9.94139 62.4417 10.0706 62.5145 10.2169C62.5326 10.2677 62.5366 10.3224 62.5263 10.3752C62.516 10.4281 62.4917 10.4773 62.4559 10.5175C62.4183 10.5665 62.3652 10.6012 62.3052 10.6159C62.2453 10.6306 62.1821 10.6243 62.1262 10.5982L62.0382 10.5175C61.8825 10.3568 61.692 10.2339 61.4814 10.1582C61.2815 10.0886 61.0699 10.0587 60.8586 10.0702C60.3603 10.0702 59.7962 10.2609 59.7962 10.8475C59.7962 11.4342 60.2578 11.5369 61.3202 11.8009C62.6904 12.1309 62.8662 12.8862 62.7343 13.5242C62.4705 14.4189 61.3495 14.6169 60.9685 14.6169Z" fill="#0163A6"/>
<path d="M66.3098 14.5141H63.5328C63.4486 14.5141 63.3677 14.4811 63.3074 14.4222C63.2472 14.3632 63.2124 14.283 63.2104 14.1987V9.79873C63.2124 9.71443 63.2472 9.63423 63.3074 9.5753C63.3677 9.51636 63.4486 9.48338 63.5328 9.4834C63.6164 9.4834 63.6965 9.51662 63.7556 9.57576C63.8147 9.63489 63.8479 9.7151 63.8479 9.79873V13.8541H66.3098C66.386 13.8657 66.4556 13.9042 66.5058 13.9628C66.5561 14.0213 66.5837 14.0959 66.5837 14.1731C66.5837 14.2502 66.5561 14.3249 66.5058 14.3834C66.4556 14.4419 66.386 14.4805 66.3098 14.4921V14.5141Z" fill="#0163A6"/>
<path d="M72.1055 14.631C71.7551 14.6305 71.4085 14.5581 71.0871 14.4183C70.7742 14.2903 70.4902 14.1008 70.2518 13.861C69.8856 13.4982 69.6367 13.0337 69.5375 12.5277C69.4382 12.0216 69.493 11.4974 69.695 11.023C69.8267 10.7145 70.0185 10.4353 70.2591 10.2016C70.5006 9.96036 70.7869 9.76855 71.1017 9.63697C71.4247 9.50292 71.7706 9.43317 72.1202 9.43164C72.6461 9.43547 73.158 9.60197 73.5856 9.90831C73.6203 9.93241 73.6499 9.96325 73.6724 9.999C73.695 10.0348 73.7102 10.0747 73.717 10.1164C73.7238 10.1582 73.7222 10.2009 73.7122 10.2419C73.7022 10.283 73.6841 10.3217 73.6589 10.3556C73.609 10.4242 73.5341 10.4704 73.4504 10.4841C73.3668 10.4978 73.2811 10.478 73.2119 10.429C72.8887 10.1929 72.4983 10.067 72.0982 10.0696C71.5723 10.0744 71.0684 10.2819 70.6914 10.649C70.5108 10.8316 70.3644 11.0452 70.2591 11.2796C70.1628 11.5121 70.1132 11.7613 70.1132 12.013C70.1132 12.2646 70.1628 12.5138 70.2591 12.7463C70.3582 12.9802 70.5027 13.192 70.6841 13.3696C70.9655 13.6532 71.3261 13.8449 71.7184 13.9195C72.1108 13.9941 72.5165 13.9482 72.8822 13.7876C73.0876 13.689 73.2756 13.5578 73.4391 13.399V12.079C73.4381 12.037 73.4455 11.9952 73.4609 11.956C73.4763 11.9169 73.4994 11.8813 73.5287 11.8512C73.5581 11.8212 73.5931 11.7973 73.6319 11.781C73.6706 11.7647 73.7121 11.7563 73.7541 11.7563C73.8396 11.7563 73.9216 11.7903 73.9821 11.8508C74.0426 11.9113 74.0765 11.9934 74.0765 12.079V13.5456C74.0726 13.6224 74.0414 13.6952 73.9886 13.751C73.7529 14.0138 73.4662 14.2259 73.146 14.3743C72.8213 14.5327 72.4666 14.6201 72.1055 14.631Z" fill="#0163A6"/>
<path d="M77.7033 14.5139H74.9264C74.8428 14.5139 74.7627 14.4807 74.7036 14.4215C74.6445 14.3624 74.6113 14.2822 74.6113 14.1986V9.79857C74.6229 9.72228 74.6614 9.65267 74.7199 9.60237C74.7784 9.55207 74.8529 9.52441 74.9301 9.52441C75.0072 9.52441 75.0817 9.55207 75.1402 9.60237C75.1987 9.65267 75.2372 9.72228 75.2488 9.79857V13.8539H77.7033C77.7492 13.8469 77.7961 13.8499 77.8408 13.8628C77.8854 13.8756 77.9267 13.8979 77.9619 13.9282C77.9972 13.9585 78.0254 13.996 78.0448 14.0383C78.0642 14.0805 78.0742 14.1264 78.0742 14.1729C78.0742 14.2194 78.0642 14.2653 78.0448 14.3075C78.0254 14.3498 77.9972 14.3873 77.9619 14.4176C77.9267 14.4479 77.8854 14.4702 77.8408 14.483C77.7961 14.4959 77.7492 14.4989 77.7033 14.4919V14.5139Z" fill="#0163A6"/>
<path d="M80.5465 14.6235C80.1957 14.6268 79.8483 14.5542 79.528 14.4109C79.2156 14.282 78.9317 14.0926 78.6927 13.8535C78.4581 13.6136 78.2694 13.3328 78.1359 13.0249C77.9993 12.7076 77.9294 12.3656 77.9307 12.0202C77.9286 11.6747 77.9985 11.3325 78.1359 11.0155C78.2729 10.7081 78.4668 10.4295 78.7074 10.1942C78.9524 9.95309 79.2435 9.76387 79.5633 9.63787C79.8831 9.51188 80.2249 9.45168 80.5685 9.46088C80.9061 9.45495 81.2415 9.51679 81.5548 9.64274C81.8682 9.7687 82.1531 9.95621 82.3929 10.1942C82.6268 10.4288 82.8112 10.7081 82.9351 11.0155C83.1985 11.6568 83.1985 12.3762 82.9351 13.0175C82.8089 13.3276 82.622 13.6093 82.3856 13.8462C82.147 14.0929 81.8612 14.2889 81.5452 14.4225C81.2292 14.5561 80.8895 14.6244 80.5465 14.6235ZM80.5465 10.0622C80.2799 10.0608 80.0157 10.1132 79.7698 10.2162C79.5299 10.3151 79.3129 10.4624 79.1323 10.6489C78.9441 10.8223 78.7965 11.0351 78.7 11.2722C78.5998 11.5038 78.5475 11.7532 78.5462 12.0055C78.5485 12.2578 78.6008 12.507 78.7 12.7389C78.7964 12.9742 78.9412 13.1866 79.125 13.3622C79.3076 13.5469 79.525 13.6935 79.7646 13.7936C80.0042 13.8937 80.2612 13.9452 80.5208 13.9452C80.7804 13.9452 81.0375 13.8937 81.2771 13.7936C81.5166 13.6935 81.734 13.5469 81.9166 13.3622C82.0912 13.182 82.2304 12.9706 82.3269 12.7389C82.4198 12.5053 82.4694 12.2569 82.4735 12.0055C82.4755 11.7515 82.4273 11.4996 82.3317 11.2643C82.2362 11.0289 82.0951 10.8148 81.9166 10.6342C81.742 10.4529 81.5325 10.3088 81.3009 10.2105C81.0692 10.1122 80.8201 10.0618 80.5685 10.0622H80.5465Z" fill="#0163A6"/>
<path d="M87.6241 13.2376C87.5978 13.6009 87.4289 13.939 87.1543 14.1781C86.8798 14.4172 86.5218 14.5378 86.1587 14.5136H83.9606C83.9199 14.5142 83.8796 14.5067 83.8419 14.4916C83.8041 14.4765 83.7698 14.454 83.7408 14.4256C83.6815 14.3645 83.6475 14.2833 83.6455 14.1982V9.79825C83.6455 9.71461 83.6787 9.63441 83.7378 9.57527C83.7969 9.51613 83.877 9.48291 83.9606 9.48291H85.851C86.2033 9.44135 86.5577 9.54045 86.8375 9.75872C87.1173 9.97698 87.2999 10.2968 87.3457 10.6489C87.3898 10.8718 87.3682 11.1027 87.2837 11.3136C87.1991 11.5245 87.0552 11.7063 86.8694 11.8369C87.1296 11.9574 87.3437 12.159 87.4797 12.4115C87.6158 12.664 87.6664 12.9538 87.6241 13.2376ZM86.9866 13.1862C87.0453 12.5556 86.7009 12.2549 86.0781 12.2549H85.5579C85.4736 12.253 85.3935 12.2182 85.3346 12.1579C85.2757 12.0975 85.2428 12.0166 85.2428 11.9322C85.2428 11.8486 85.276 11.7684 85.3351 11.7093C85.3942 11.6501 85.4743 11.6169 85.5579 11.6169H86.0415C86.1459 11.6088 86.2473 11.5785 86.339 11.5278C86.4306 11.4772 86.5104 11.4075 86.5729 11.3234C86.6354 11.2393 86.6791 11.1428 86.7012 11.0404C86.7233 10.938 86.7232 10.832 86.7009 10.7296C86.6569 10.3116 86.3565 10.1429 85.8143 10.1429H84.2463V13.8682H86.1221C86.613 13.8682 86.9427 13.6556 86.9866 13.1862Z" fill="#0163A6"/>
<path d="M92.475 14.4916C92.3973 14.5264 92.3089 14.5289 92.2293 14.4987C92.1497 14.4684 92.0853 14.4079 92.0501 14.3303L91.6105 13.3476C91.2061 13.2488 90.7839 13.2488 90.3795 13.3476C90.0418 13.4128 89.7189 13.5396 89.427 13.7216C89.1024 13.9316 88.8025 14.1776 88.5331 14.455C88.4836 14.5126 88.4157 14.5514 88.341 14.5647C88.2662 14.5781 88.1891 14.5652 88.1228 14.5283C87.9836 14.4403 87.9982 14.2643 88.0641 14.1176L90.0791 9.71763C90.1056 9.66347 90.1468 9.61784 90.198 9.58593C90.2492 9.55402 90.3082 9.53711 90.3685 9.53711C90.4288 9.53711 90.4879 9.55402 90.539 9.58593C90.5902 9.61784 90.6314 9.66347 90.6579 9.71763L92.6362 14.1176C92.6564 14.189 92.6514 14.2652 92.6221 14.3333C92.5927 14.4014 92.5408 14.4573 92.475 14.4916ZM90.3648 10.5903L89.1412 13.1936C89.4975 12.9964 89.8798 12.8508 90.2769 12.761C90.6214 12.6901 90.9744 12.6704 91.3247 12.7023L90.3648 10.5903Z" fill="#0163A6"/>
<path d="M96.2629 14.5139H93.486C93.4446 14.5139 93.4036 14.5058 93.3654 14.4899C93.3272 14.4741 93.2924 14.4508 93.2632 14.4215C93.2339 14.3923 93.2107 14.3575 93.1949 14.3192C93.179 14.281 93.1709 14.24 93.1709 14.1986V9.79857C93.1825 9.72228 93.221 9.65267 93.2795 9.60237C93.338 9.55207 93.4125 9.52441 93.4896 9.52441C93.5667 9.52441 93.6413 9.55207 93.6998 9.60237C93.7582 9.65267 93.7968 9.72228 93.8084 9.79857V13.8539H96.2629C96.3088 13.8469 96.3557 13.8499 96.4003 13.8628C96.445 13.8756 96.4863 13.8979 96.5215 13.9282C96.5567 13.9585 96.585 13.996 96.6044 14.0383C96.6237 14.0805 96.6338 14.1264 96.6338 14.1729C96.6338 14.2194 96.6237 14.2653 96.6044 14.3075C96.585 14.3498 96.5567 14.3873 96.5215 14.4176C96.4863 14.4479 96.445 14.4702 96.4003 14.483C96.3557 14.4959 96.3088 14.4989 96.2629 14.4919V14.5139Z" fill="#0163A6"/>
<path d="M105.539 14.6167C105.373 14.6276 105.207 14.6276 105.041 14.6167C104.753 14.5754 104.475 14.4835 104.22 14.3453C103.978 14.2339 103.787 14.0348 103.685 13.788C103.605 13.568 103.839 13.282 104.073 13.3993C104.126 13.4365 104.171 13.4839 104.205 13.5387C104.449 13.8012 104.78 13.9656 105.136 14.0007C105.412 14.0489 105.695 14.0489 105.971 14.0007C106.128 13.987 106.278 13.9324 106.406 13.8423C106.535 13.7522 106.638 13.6298 106.704 13.4873C106.758 13.3407 106.758 13.1793 106.704 13.0327C106.557 12.6 106.015 12.4387 105.554 12.3433C105.248 12.2845 104.948 12.1961 104.66 12.0793C104.338 11.9776 104.061 11.7678 103.876 11.4853C103.784 11.3045 103.733 11.106 103.726 10.9035C103.718 10.701 103.754 10.4992 103.832 10.312C103.981 10.0295 104.21 9.79692 104.49 9.64313C104.77 9.48934 105.089 9.42104 105.407 9.44668C105.732 9.44331 106.055 9.50051 106.36 9.61534C106.518 9.65686 106.665 9.73209 106.792 9.83588C106.918 9.93966 107.021 10.0696 107.092 10.2167C107.111 10.2668 107.117 10.3211 107.108 10.374C107.098 10.4269 107.076 10.4764 107.041 10.5173C107.001 10.5659 106.947 10.6001 106.886 10.6146C106.825 10.6292 106.761 10.6234 106.704 10.598L106.616 10.5173C106.464 10.3559 106.275 10.2327 106.066 10.158C105.864 10.0884 105.65 10.0585 105.436 10.07C104.945 10.07 104.374 10.2607 104.374 10.8473C104.374 11.434 104.843 11.5367 105.905 11.8007C107.268 12.1307 107.444 12.886 107.319 13.524C107.085 14.4187 105.964 14.6167 105.539 14.6167Z" fill="#0163A6"/>
<path d="M108.909 14.5139C108.826 14.5139 108.746 14.4807 108.687 14.4215C108.627 14.3624 108.594 14.2822 108.594 14.1986V9.79857C108.606 9.72228 108.644 9.65267 108.703 9.60237C108.761 9.55207 108.836 9.52441 108.913 9.52441C108.99 9.52441 109.065 9.55207 109.123 9.60237C109.182 9.65267 109.22 9.72228 109.232 9.79857V14.1986C109.23 14.2829 109.195 14.3631 109.135 14.422C109.074 14.4809 108.994 14.5139 108.909 14.5139Z" fill="#0163A6"/>
<path d="M114.595 14.4918C114.531 14.514 114.462 14.5175 114.396 14.502C114.33 14.4864 114.269 14.4523 114.222 14.4038L111.144 10.7004V14.1984C111.133 14.2747 111.094 14.3444 111.036 14.3947C110.977 14.445 110.903 14.4726 110.826 14.4726C110.748 14.4726 110.674 14.445 110.615 14.3947C110.557 14.3444 110.518 14.2747 110.507 14.1984V9.79845C110.508 9.73362 110.529 9.67068 110.567 9.61819C110.605 9.5657 110.658 9.52622 110.719 9.50511C110.78 9.48145 110.848 9.47794 110.911 9.49509C110.974 9.51223 111.03 9.54915 111.071 9.60045L114.156 13.2671V9.82045C114.156 9.73682 114.189 9.65661 114.248 9.59747C114.307 9.53834 114.387 9.50511 114.471 9.50511C114.554 9.50511 114.634 9.53834 114.694 9.59747C114.753 9.65661 114.786 9.73682 114.786 9.82045V14.2204C114.789 14.2804 114.771 14.3395 114.737 14.3886C114.702 14.4377 114.653 14.474 114.595 14.4918Z" fill="#0163A6"/>
<path d="M118.655 14.6018C118.302 14.6021 117.953 14.5297 117.629 14.3891C117.319 14.2556 117.038 14.0639 116.801 13.8244C116.561 13.5892 116.371 13.3071 116.244 12.9958C116.103 12.6824 116.033 12.3419 116.039 11.9984C116.036 11.6529 116.106 11.3106 116.244 10.9938C116.377 10.684 116.569 10.4027 116.808 10.1651C117.05 9.92601 117.336 9.73667 117.651 9.60777C117.974 9.47372 118.32 9.40397 118.669 9.40244C119.231 9.39749 119.777 9.58079 120.223 9.92311C120.262 9.94682 120.295 9.97838 120.322 10.0158C120.348 10.0532 120.366 10.0957 120.375 10.1405C120.384 10.1853 120.383 10.2315 120.374 10.2761C120.364 10.3208 120.345 10.3629 120.318 10.3998C120.267 10.4672 120.191 10.5119 120.108 10.5242C120.024 10.5366 119.939 10.5156 119.871 10.4658C119.536 10.2049 119.123 10.0653 118.699 10.0698C118.432 10.0692 118.168 10.1215 117.922 10.2238C117.685 10.3245 117.469 10.4688 117.284 10.6491C117.101 10.8247 116.956 11.0371 116.86 11.2724C116.758 11.51 116.706 11.7657 116.706 12.0241C116.706 12.2825 116.758 12.5382 116.86 12.7758C116.956 13.0133 117.1 13.2281 117.284 13.4064C117.468 13.5916 117.686 13.7387 117.926 13.8394C118.166 13.9401 118.424 13.9923 118.684 13.9931C118.914 13.9929 119.143 13.9506 119.358 13.8684C119.567 13.7937 119.76 13.6819 119.93 13.5384C119.961 13.5115 119.998 13.491 120.038 13.4783C120.077 13.4655 120.119 13.4607 120.161 13.4641C120.202 13.4675 120.243 13.4791 120.28 13.4981C120.317 13.5172 120.35 13.5433 120.377 13.5751C120.403 13.6069 120.424 13.6437 120.437 13.6833C120.449 13.723 120.454 13.7648 120.451 13.8064C120.447 13.8479 120.436 13.8884 120.417 13.9254C120.398 13.9625 120.372 13.9955 120.34 14.0224C120.121 14.2084 119.874 14.3571 119.607 14.4624C119.301 14.569 118.978 14.6163 118.655 14.6018Z" fill="#0163A6"/>
<path d="M125.352 14.1985C125.352 14.2399 125.343 14.2809 125.328 14.3192C125.312 14.3574 125.288 14.3922 125.259 14.4215C125.23 14.4507 125.195 14.474 125.157 14.4898C125.119 14.5057 125.078 14.5138 125.036 14.5138H121.988C121.905 14.5138 121.825 14.4806 121.766 14.4215C121.707 14.3623 121.673 14.2821 121.673 14.1985V9.79849C121.673 9.71486 121.707 9.63465 121.766 9.57552C121.825 9.51638 121.905 9.48316 121.988 9.48316H124.971C125.016 9.47617 125.063 9.47919 125.108 9.49202C125.153 9.50484 125.194 9.52716 125.229 9.55745C125.264 9.58774 125.293 9.62529 125.312 9.66752C125.331 9.70976 125.341 9.75569 125.341 9.80216C125.341 9.84863 125.331 9.89456 125.312 9.93679C125.293 9.97903 125.264 10.0166 125.229 10.0469C125.194 10.0772 125.153 10.0995 125.108 10.1123C125.063 10.1251 125.016 10.1281 124.971 10.1212H122.311V11.6538H124.663C124.748 11.6538 124.83 11.6878 124.891 11.7483C124.951 11.8088 124.985 11.8909 124.985 11.9765C124.985 12.0185 124.977 12.0601 124.96 12.0989C124.944 12.1376 124.92 12.1727 124.89 12.2021C124.86 12.2315 124.825 12.2546 124.786 12.27C124.747 12.2854 124.705 12.2928 124.663 12.2918H122.311V13.8538H125.036C125.08 13.8536 125.124 13.8627 125.164 13.8803C125.204 13.898 125.241 13.9238 125.27 13.9563C125.3 13.9888 125.323 14.0271 125.337 14.0688C125.35 14.1105 125.356 14.1547 125.352 14.1985Z" fill="#0163A6"/>
<path d="M131.242 14.5137C131.159 14.5137 131.079 14.4805 131.02 14.4214C130.96 14.3622 130.927 14.282 130.927 14.1984V10.2531L130.114 10.5024H130.019C129.945 10.4992 129.874 10.4707 129.819 10.4215C129.763 10.3724 129.726 10.3056 129.714 10.2325C129.702 10.1593 129.716 10.0842 129.752 10.0199C129.789 9.95552 129.847 9.90579 129.916 9.87906L131.147 9.49773C131.195 9.48107 131.246 9.47638 131.295 9.48405C131.345 9.49172 131.392 9.51153 131.433 9.54173C131.473 9.57133 131.506 9.60993 131.529 9.65448C131.552 9.69903 131.564 9.7483 131.565 9.79839V14.1984C131.565 14.2404 131.556 14.282 131.54 14.3208C131.524 14.3595 131.5 14.3946 131.47 14.424C131.44 14.4534 131.404 14.4765 131.365 14.4919C131.326 14.5073 131.284 14.5147 131.242 14.5137Z" fill="#0163A6"/>
<path d="M132.81 11.0821C132.811 10.8542 132.861 10.6291 132.957 10.4221C133.049 10.2218 133.184 10.0442 133.352 9.90145C133.701 9.59364 134.151 9.42383 134.616 9.42383C135.082 9.42383 135.531 9.59364 135.88 9.90145C136.166 10.1474 136.354 10.4886 136.408 10.8621C136.558 11.4464 136.588 12.0552 136.496 12.6515C136.398 13.2183 136.111 13.7353 135.682 14.1181C135.279 14.4716 134.752 14.6508 134.217 14.6168C134.007 14.6109 133.801 14.5601 133.613 14.4678C133.425 14.3754 133.258 14.2437 133.125 14.0815C133.099 14.0489 133.079 14.0114 133.067 13.9711C133.056 13.9309 133.052 13.8887 133.057 13.847C133.062 13.8054 133.075 13.7651 133.095 13.7285C133.116 13.692 133.143 13.6599 133.176 13.6341C133.244 13.5835 133.328 13.5613 133.412 13.5723C133.495 13.5832 133.571 13.6265 133.623 13.6928C133.703 13.7798 133.799 13.8499 133.906 13.899C134.013 13.9481 134.129 13.9753 134.246 13.9788C134.618 14.0026 134.984 13.8787 135.265 13.6341C135.583 13.3365 135.794 12.9421 135.865 12.5121C135.883 12.425 135.896 12.3368 135.902 12.2481C135.555 12.5604 135.105 12.7332 134.638 12.7332C134.171 12.7332 133.721 12.5604 133.374 12.2481C133.206 12.1054 133.071 11.9277 132.979 11.7275C132.878 11.5266 132.82 11.3067 132.81 11.0821ZM133.448 11.0821C133.486 11.3647 133.626 11.6237 133.841 11.8112C134.056 11.9987 134.331 12.102 134.616 12.102C134.901 12.102 135.177 11.9987 135.391 11.8112C135.606 11.6237 135.746 11.3647 135.785 11.0821C135.788 11.0554 135.788 11.0282 135.785 11.0015C135.781 10.9722 135.781 10.9427 135.785 10.9135C135.72 10.6612 135.57 10.439 135.36 10.2841C135.151 10.1292 134.895 10.0511 134.634 10.0628C134.489 10.0508 134.344 10.0677 134.205 10.1126C134.067 10.1575 133.939 10.2294 133.828 10.3242C133.718 10.419 133.627 10.5349 133.562 10.665C133.497 10.7951 133.458 10.9369 133.448 11.0821Z" fill="#0163A6"/>
<path d="M137.8 11.0824C137.801 10.859 137.849 10.6383 137.941 10.4348C138.033 10.2313 138.167 10.0496 138.335 9.90174C138.684 9.58745 139.14 9.41716 139.61 9.42507C140.075 9.41869 140.525 9.58902 140.87 9.90174C141.034 10.0484 141.168 10.2252 141.266 10.4224C141.325 10.5641 141.369 10.7115 141.397 10.8624C141.549 11.4466 141.577 12.0562 141.478 12.6517C141.383 13.2178 141.099 13.7348 140.672 14.1184C140.268 14.4711 139.742 14.6503 139.207 14.6171C138.996 14.6123 138.788 14.562 138.599 14.4696C138.409 14.3772 138.241 14.2449 138.108 14.0817C138.082 14.0487 138.062 14.0108 138.051 13.9703C138.04 13.9297 138.037 13.8874 138.043 13.8457C138.048 13.804 138.062 13.7639 138.083 13.7276C138.104 13.6913 138.133 13.6596 138.166 13.6344C138.234 13.5838 138.318 13.5616 138.402 13.5726C138.485 13.5835 138.561 13.6268 138.613 13.6931C138.692 13.7807 138.788 13.8513 138.895 13.9005C139.002 13.9496 139.118 13.9764 139.236 13.9791C139.605 14.0025 139.969 13.8786 140.247 13.6344C140.568 13.3375 140.781 12.9432 140.855 12.5124C140.86 12.4245 140.86 12.3363 140.855 12.2484C140.51 12.5607 140.06 12.7332 139.595 12.7324C139.125 12.734 138.671 12.5616 138.32 12.2484C138.153 12.1005 138.019 11.9188 137.926 11.7153C137.834 11.5119 137.786 11.2912 137.785 11.0677L137.8 11.0824ZM138.437 11.0824C138.476 11.365 138.616 11.624 138.831 11.8115C139.045 11.999 139.321 12.1023 139.606 12.1023C139.891 12.1023 140.166 11.999 140.381 11.8115C140.596 11.624 140.736 11.365 140.775 11.0824C140.778 11.0556 140.778 11.0285 140.775 11.0017C140.771 10.9725 140.771 10.943 140.775 10.9137C140.709 10.6614 140.559 10.4393 140.35 10.2844C140.141 10.1295 139.884 10.0514 139.624 10.0631C139.479 10.0511 139.333 10.068 139.195 10.1129C139.057 10.1577 138.928 10.2297 138.818 10.3245C138.708 10.4193 138.617 10.5351 138.552 10.6652C138.486 10.7953 138.447 10.9371 138.437 11.0824Z" fill="#0163A6"/>
<path d="M99.9703 8.86719H99.9264C99.8211 8.86719 99.7358 8.95255 99.7358 9.05785V15.0492C99.7358 15.1545 99.8211 15.2399 99.9264 15.2399H99.9703C100.076 15.2399 100.161 15.1545 100.161 15.0492V9.05785C100.161 8.95255 100.076 8.86719 99.9703 8.86719Z" fill="#0163A6"/>
<path d="M143.698 14.5063C143.647 14.5091 143.596 14.4963 143.552 14.4696C143.478 14.4307 143.422 14.364 143.398 14.2843C143.373 14.2045 143.381 14.1182 143.42 14.0443L145.449 10.143H143.105C143.019 10.143 142.937 10.109 142.877 10.0485C142.816 9.98795 142.782 9.90588 142.782 9.8203C142.782 9.77827 142.791 9.73665 142.807 9.69791C142.823 9.65917 142.847 9.62407 142.877 9.59469C142.907 9.56531 142.943 9.54224 142.982 9.52683C143.021 9.51142 143.063 9.50399 143.105 9.50497H145.962C146.017 9.5056 146.07 9.52006 146.118 9.54699C146.165 9.57393 146.205 9.61245 146.233 9.65897C146.26 9.70579 146.274 9.7589 146.274 9.81297C146.274 9.86703 146.26 9.92015 146.233 9.96697L143.962 14.367C143.933 14.4102 143.894 14.4455 143.848 14.4699C143.801 14.4942 143.75 14.5067 143.698 14.5063Z" fill="#0163A6"/>
<path d="M151.993 43.253C151.91 43.252 151.827 43.2676 151.75 43.299C151.673 43.3303 151.604 43.3768 151.545 43.4355C151.486 43.4943 151.44 43.5642 151.409 43.6412C151.377 43.7181 151.362 43.8006 151.363 43.8837V45.189C151.161 45.3727 150.934 45.5259 150.688 45.6437C150.356 45.7907 149.997 45.8657 149.633 45.8637C148.943 45.8737 148.277 45.6101 147.78 45.1303C147.539 44.8957 147.349 44.6135 147.223 44.3017C147.085 43.9926 147.015 43.6575 147.018 43.319C147.016 42.9782 147.085 42.6409 147.223 42.329C147.356 42.0175 147.551 41.7358 147.794 41.5003C148.032 41.2621 148.317 41.0749 148.63 40.9503C149.028 40.7813 149.462 40.7156 149.892 40.7592C150.323 40.8028 150.735 40.9543 151.091 41.1997C151.229 41.2943 151.398 41.3312 151.562 41.3024C151.727 41.2736 151.873 41.1814 151.971 41.0457C152.02 40.9785 152.056 40.902 152.075 40.8206C152.094 40.7393 152.097 40.6549 152.083 40.5726C152.068 40.4903 152.037 40.4117 151.991 40.3418C151.946 40.2718 151.886 40.2119 151.817 40.1657C151.074 39.6415 150.17 39.3973 149.265 39.4765C148.36 39.5557 147.512 39.9531 146.871 40.5983C146.51 40.9425 146.224 41.3567 146.028 41.8157C145.829 42.279 145.724 42.7777 145.721 43.2823C145.723 43.786 145.824 44.2842 146.019 44.7486C146.214 45.2129 146.499 45.6342 146.856 45.9883C147.209 46.3435 147.627 46.6273 148.087 46.8243C148.566 47.031 149.083 47.1358 149.604 47.1323C150.148 47.1368 150.685 47.0216 151.179 46.795C151.654 46.5733 152.082 46.262 152.44 45.8783C152.543 45.7605 152.6 45.6095 152.601 45.453V43.8837C152.601 43.7201 152.538 43.563 152.424 43.4453C152.311 43.3277 152.156 43.2587 151.993 43.253Z" fill="#0163A6"/>
<path d="M164.807 42.1018C164.81 41.7219 164.746 41.3445 164.617 40.9872C164.48 40.6431 164.262 40.3374 163.981 40.096C163.7 39.8547 163.365 39.6849 163.005 39.6012C162.816 39.5533 162.621 39.5262 162.426 39.5205H159.759C159.676 39.5205 159.593 39.5371 159.516 39.5692C159.439 39.6014 159.37 39.6485 159.311 39.7078C159.252 39.7672 159.206 39.8375 159.175 39.9149C159.144 39.9923 159.128 40.0751 159.129 40.1585V46.3332C159.131 46.5005 159.198 46.6606 159.315 46.7797C159.433 46.8987 159.592 46.9674 159.759 46.9712C159.842 46.9712 159.925 46.9546 160.002 46.9225C160.079 46.8903 160.149 46.8432 160.207 46.7839C160.266 46.7245 160.312 46.6541 160.343 46.5768C160.375 46.4994 160.39 46.4166 160.389 46.3332V40.7892H162.426C162.631 40.7996 162.831 40.8546 163.012 40.9505C163.155 41.036 163.276 41.1541 163.364 41.2952C163.488 41.5455 163.548 41.8226 163.54 42.1018C163.56 42.2903 163.523 42.4804 163.436 42.6486C163.349 42.8167 163.214 42.9556 163.049 43.0478C162.737 43.2054 162.394 43.293 162.045 43.3045C161.88 43.2782 161.712 43.2782 161.547 43.3045C161.393 43.3298 161.254 43.4129 161.159 43.5368C161.063 43.6607 161.019 43.8162 161.034 43.9718C161.043 44.1307 161.113 44.28 161.229 44.3891C161.345 44.4982 161.498 44.5588 161.657 44.5585H162.016C162.172 44.5666 162.325 44.6092 162.463 44.6832C162.692 44.7927 162.887 44.9625 163.027 45.1745C163.269 45.5567 163.433 45.9828 163.511 46.4285C163.539 46.5716 163.616 46.7006 163.728 46.794C163.84 46.8875 163.98 46.9396 164.126 46.9418H164.251C164.413 46.9099 164.557 46.8149 164.65 46.6776C164.743 46.5403 164.779 46.3718 164.749 46.2085C164.641 45.5671 164.39 44.9582 164.016 44.4265C163.933 44.3151 163.843 44.2097 163.745 44.1112C164.084 43.9007 164.362 43.6037 164.548 43.2506C164.735 42.8975 164.824 42.501 164.807 42.1018Z" fill="#0163A6"/>
<path d="M177.923 40.5689C177.571 40.2053 177.15 39.9164 176.684 39.7199C176.218 39.5233 175.718 39.423 175.212 39.4249C174.701 39.4205 174.194 39.5181 173.721 39.712C173.248 39.906 172.818 40.1923 172.457 40.5543C172.098 40.9018 171.81 41.3151 171.607 41.7716C171.407 42.2435 171.303 42.7511 171.303 43.2639C171.303 43.7768 171.407 44.2843 171.607 44.7563C171.808 45.2107 172.088 45.6255 172.435 45.9809C172.79 46.3348 173.211 46.6163 173.673 46.8096C174.148 47.0207 174.663 47.1282 175.183 47.1249C175.691 47.1272 176.194 47.0271 176.662 46.8306C177.13 46.634 177.554 46.3451 177.908 45.9809C178.439 45.4382 178.799 44.7515 178.944 44.0058C179.089 43.2601 179.011 42.4884 178.722 41.7863C178.534 41.3339 178.263 40.921 177.923 40.5689ZM177.747 43.2676C177.747 43.6091 177.682 43.9475 177.557 44.2649C177.393 44.6593 177.134 45.007 176.804 45.2767C176.473 45.5465 176.081 45.7299 175.662 45.8106C175.243 45.8912 174.81 45.8666 174.403 45.7389C173.996 45.6113 173.627 45.3845 173.329 45.0789C173.09 44.8452 172.901 44.5659 172.772 44.2576C172.635 43.9457 172.565 43.6084 172.567 43.2676C172.566 42.9262 172.638 42.5885 172.779 42.2776C172.909 41.9681 173.101 41.6886 173.344 41.4563C173.584 41.2175 173.868 41.0259 174.179 40.8916C174.507 40.7598 174.858 40.6926 175.212 40.6936C175.547 40.6884 175.88 40.7506 176.191 40.8766C176.502 41.0026 176.785 41.1897 177.022 41.4269C177.259 41.6702 177.445 41.9583 177.569 42.2743C177.694 42.5903 177.754 42.928 177.747 43.2676Z" fill="#0163A6"/>
<path d="M191.185 39.5352C191.018 39.5371 190.859 39.6042 190.742 39.722C190.624 39.8399 190.557 39.9992 190.555 40.1659V43.9205C190.566 44.3063 190.483 44.6889 190.313 45.0352C190.201 45.2536 190.028 45.4345 189.815 45.5559C189.458 45.725 189.067 45.8127 188.672 45.8127C188.277 45.8127 187.886 45.725 187.529 45.5559C187.311 45.4321 187.133 45.249 187.016 45.0279C186.851 44.6827 186.77 44.3031 186.781 43.9205V40.1659C186.765 40.0094 186.691 39.8647 186.574 39.7595C186.457 39.6543 186.305 39.5962 186.148 39.5962C185.99 39.5962 185.839 39.6543 185.722 39.7595C185.605 39.8647 185.531 40.0094 185.514 40.1659V43.9205C185.502 44.5156 185.636 45.1046 185.902 45.6365C186.134 46.06 186.479 46.4105 186.899 46.6485C187.44 46.9491 188.053 47.0985 188.672 47.0812C189.224 47.1303 189.778 47.0179 190.267 46.7575C190.756 46.4971 191.159 46.1 191.427 45.6145C191.7 45.0847 191.836 44.4947 191.822 43.8985V40.1659C191.822 40.0824 191.806 39.9998 191.774 39.9228C191.742 39.8458 191.695 39.776 191.635 39.7173C191.576 39.6586 191.506 39.6123 191.428 39.5811C191.351 39.5498 191.268 39.5342 191.185 39.5352Z" fill="#0163A6"/>
<path d="M203.846 41.0019C203.733 40.7065 203.558 40.4388 203.333 40.2172C203.025 39.9226 202.647 39.7129 202.234 39.6085C202.044 39.5618 201.85 39.5372 201.655 39.5352H198.988C198.905 39.5342 198.823 39.5499 198.746 39.5812C198.669 39.6125 198.599 39.659 198.54 39.7177C198.482 39.7765 198.435 39.8464 198.404 39.9234C198.373 40.0003 198.357 40.0828 198.358 40.1659V46.3332C198.375 46.4897 198.449 46.6344 198.566 46.7396C198.683 46.8447 198.834 46.9029 198.992 46.9029C199.149 46.9029 199.301 46.8447 199.418 46.7396C199.535 46.6344 199.609 46.4897 199.626 46.3332V40.7965H201.648C201.857 40.8081 202.06 40.8683 202.241 40.9725C202.387 41.052 202.506 41.1717 202.586 41.3172C202.711 41.5618 202.772 41.8345 202.762 42.1092C202.781 42.2977 202.745 42.4878 202.658 42.6559C202.571 42.8241 202.436 42.9629 202.271 43.0552C201.837 43.2622 201.358 43.3556 200.878 43.3265C200.722 43.3434 200.578 43.4175 200.472 43.5346C200.367 43.6517 200.309 43.8035 200.309 43.9609C200.309 44.1182 200.367 44.2701 200.472 44.3872C200.578 44.5043 200.722 44.5783 200.878 44.5952C201.579 44.6269 202.276 44.4752 202.901 44.1552C203.262 43.9547 203.559 43.6564 203.759 43.2946C203.958 42.9327 204.052 42.5219 204.029 42.1092C204.035 41.7321 203.973 41.3569 203.846 41.0019Z" fill="#0163A6"/>
<path d="M66.7863 20.1319C66.7233 20.1208 66.6588 20.1208 66.5958 20.1319C66.4947 20.134 66.3964 20.1648 66.3121 20.2206C66.2278 20.2764 66.161 20.355 66.1195 20.4472L61.1298 32.4812C61.0909 32.5759 61.025 32.657 60.9403 32.7144C60.8556 32.7718 60.7558 32.8029 60.6535 32.8039C60.5502 32.8034 60.4493 32.7726 60.3633 32.7152C60.2774 32.6579 60.2101 32.5765 60.1699 32.4812L55.1875 20.4179C55.1439 20.3237 55.0748 20.2435 54.988 20.1865C54.9013 20.1295 54.8004 20.0979 54.6966 20.0952C54.6312 20.0841 54.5643 20.0841 54.4988 20.0952C54.3738 20.1517 54.2749 20.2534 54.2219 20.38C54.1689 20.5065 54.1657 20.6484 54.213 20.7772L60.1553 35.1652C60.1964 35.2628 60.2659 35.3458 60.3548 35.4033C60.4436 35.4609 60.5477 35.4903 60.6535 35.4879C60.7567 35.4863 60.857 35.4541 60.9418 35.3954C61.0266 35.3366 61.092 35.254 61.1298 35.1579L67.072 20.7699C67.099 20.7112 67.113 20.6474 67.113 20.5829C67.113 20.5183 67.099 20.4545 67.072 20.3959C67.0133 20.2751 66.9113 20.1809 66.7863 20.1319Z" fill="#0163A6"/>
<path d="M70.4426 20.1758C70.3063 20.1812 70.1772 20.2378 70.0807 20.3343C69.9843 20.4308 69.9278 20.5601 69.9224 20.6964V34.9598C69.9224 35.0979 69.9772 35.2303 70.0747 35.3279C70.1723 35.4256 70.3046 35.4804 70.4426 35.4804C70.5115 35.4825 70.58 35.4704 70.644 35.4449C70.7081 35.4195 70.7662 35.3812 70.8149 35.3325C70.8637 35.2837 70.9019 35.2255 70.9273 35.1614C70.9528 35.0973 70.9648 35.0287 70.9628 34.9598V20.6671C70.9553 20.5342 70.8972 20.4092 70.8005 20.3178C70.7037 20.2264 70.5756 20.1756 70.4426 20.1758Z" fill="#0163A6"/>
<path d="M86.5183 32.9942C86.4 32.9918 86.2851 33.0337 86.1959 33.1115C85.5913 33.6158 84.9048 34.0126 84.1663 34.2848C83.4028 34.5623 82.5973 34.7062 81.785 34.7102C80.8668 34.7093 79.9578 34.5268 79.1103 34.1731C78.2628 33.8195 77.4935 33.3017 76.8466 32.6495C76.2201 32.0183 75.7224 31.271 75.3812 30.4495C75.0232 29.6077 74.8387 28.7023 74.8387 27.7875C74.8387 26.8727 75.0232 25.9673 75.3812 25.1255C75.7272 24.3065 76.2243 23.5602 76.8466 22.9255C77.5009 22.272 78.278 21.7547 79.1332 21.4035C79.9884 21.0524 80.9046 20.8742 81.829 20.8795C83.3267 20.8694 84.7844 21.3626 85.9688 22.2802C86.0532 22.3436 86.1563 22.3771 86.2618 22.3755C86.3453 22.3752 86.4276 22.3559 86.5025 22.3191C86.5774 22.2822 86.6429 22.2288 86.6941 22.1628C86.775 22.0498 86.8081 21.9093 86.7861 21.772C86.7642 21.6347 86.689 21.5116 86.5769 21.4295C85.2158 20.384 83.5446 19.8239 81.829 19.8382C79.6943 19.8316 77.6442 20.6729 76.1285 22.1775C75.3749 22.9018 74.7765 23.7721 74.3696 24.7353C73.9627 25.6985 73.756 26.7344 73.7619 27.7802C73.7552 28.8317 73.9673 29.8731 74.3847 30.8382C74.7846 31.7882 75.3671 32.6503 76.0992 33.3755C76.8338 34.1066 77.6986 34.6936 78.649 35.1062C79.6399 35.5308 80.7071 35.7479 81.785 35.7442C82.7239 35.7433 83.6549 35.5718 84.5327 35.2382C85.3794 34.9172 86.165 34.4533 86.8553 33.8668C86.9069 33.8258 86.9497 33.7748 86.9812 33.7168C87.0127 33.6588 87.0322 33.5951 87.0385 33.5295C87.0458 33.4613 87.0392 33.3923 87.019 33.3268C86.9989 33.2612 86.9656 33.2004 86.9213 33.1482C86.8685 33.0959 86.8054 33.0552 86.736 33.0287C86.6666 33.0022 86.5925 32.9904 86.5183 32.9942Z" fill="#0163A6"/>
<path d="M101.465 20.1758H90.2771C90.1391 20.1758 90.0068 20.2306 89.9092 20.3283C89.8117 20.4259 89.7568 20.5584 89.7568 20.6964C89.7568 20.8345 89.8117 20.967 89.9092 21.0646C90.0068 21.1623 90.1391 21.2171 90.2771 21.2171H94.8492C94.9871 21.2171 95.1194 21.272 95.217 21.3696C95.3146 21.4673 95.3694 21.5997 95.3694 21.7378V34.9378C95.3673 35.0067 95.3794 35.0753 95.4048 35.1394C95.4303 35.2035 95.4685 35.2617 95.5172 35.3105C95.5659 35.3592 95.6241 35.3975 95.6881 35.4229C95.7522 35.4484 95.8207 35.4605 95.8896 35.4584C96.0276 35.4584 96.1599 35.4036 96.2574 35.3059C96.355 35.2083 96.4098 35.0759 96.4098 34.9378V21.7378C96.4098 21.5997 96.4646 21.4673 96.5622 21.3696C96.6597 21.272 96.7921 21.2171 96.93 21.2171H101.48C101.618 21.2171 101.75 21.1623 101.848 21.0646C101.946 20.967 102 20.8345 102 20.6964C102 20.5584 101.946 20.4259 101.848 20.3283C101.75 20.2306 101.618 20.1758 101.48 20.1758H101.465Z" fill="#0163A6"/>
<path d="M116.391 22.2877C115.664 21.5388 114.793 20.9443 113.831 20.5399C112.869 20.1354 111.836 19.9292 110.793 19.9337C109.714 19.935 108.647 20.1467 107.649 20.557C106.695 20.9624 105.827 21.5474 105.092 22.2803C104.356 23.0007 103.766 23.8575 103.356 24.803C102.929 25.7711 102.71 26.8177 102.711 27.8757C102.713 28.9287 102.925 29.9708 103.334 30.941C103.748 31.887 104.332 32.7493 105.056 33.4857C105.791 34.2155 106.659 34.798 107.613 35.2017C109.08 35.8415 110.707 36.0194 112.277 35.7115C113.848 35.4037 115.288 34.6248 116.405 33.4783C117.877 31.987 118.697 29.9717 118.684 27.8757C118.689 25.7917 117.879 23.7885 116.427 22.295L116.391 22.2877ZM117.123 30.5377C116.687 31.5918 115.997 32.5214 115.114 33.2434C114.231 33.9654 113.184 34.4573 112.065 34.6752C110.946 34.8931 109.79 34.8302 108.701 34.4921C107.612 34.154 106.624 33.5512 105.825 32.7377C105.178 32.1044 104.663 31.3481 104.312 30.5132C103.961 29.6783 103.781 28.7815 103.781 27.8757C103.804 26.0448 104.55 24.2974 105.854 23.0137C106.495 22.3821 107.255 21.8836 108.089 21.547C108.956 21.191 109.885 21.0091 110.822 21.0117C111.729 21.0056 112.628 21.1837 113.464 21.5354C114.3 21.8871 115.057 22.405 115.687 23.0577C116.952 24.355 117.655 26.0995 117.643 27.9123C117.627 28.8142 117.44 29.7049 117.094 30.5377H117.123Z" fill="#0163A6"/>
<path d="M132.107 22.94C131.891 22.3904 131.564 21.8911 131.147 21.4733C130.56 20.9063 129.831 20.5085 129.037 20.322C128.679 20.2251 128.309 20.1733 127.938 20.168H121.783C121.715 20.168 121.647 20.1814 121.584 20.2076C121.521 20.2338 121.464 20.2721 121.416 20.3205C121.367 20.3688 121.329 20.4262 121.303 20.4894C121.277 20.5526 121.263 20.6203 121.263 20.6886V34.9446C121.269 35.081 121.325 35.2103 121.422 35.3068C121.518 35.4033 121.647 35.4599 121.783 35.4653C121.921 35.4653 122.054 35.4104 122.151 35.3128C122.249 35.2152 122.304 35.0827 122.304 34.9446V21.7446C122.304 21.6065 122.358 21.4741 122.456 21.3765C122.554 21.2788 122.686 21.224 122.824 21.224H127.953C128.593 21.2483 129.22 21.4189 129.785 21.7226C130.255 22.0006 130.646 22.3944 130.92 22.8666C131.29 23.5844 131.471 24.3842 131.448 25.1913C131.495 25.7943 131.368 26.3981 131.082 26.931C130.796 27.464 130.364 27.9037 129.836 28.198C128.976 28.652 128.023 28.9028 127.052 28.9313H126.707C126.5 28.928 126.294 28.9477 126.092 28.99H126.048C125.928 29.0131 125.821 29.08 125.748 29.1776C125.675 29.2752 125.641 29.3965 125.652 29.518C125.661 29.6452 125.717 29.7644 125.809 29.8525C125.901 29.9407 126.023 29.9913 126.15 29.9946H126.575H127.037C127.527 30.0272 128.006 30.1595 128.444 30.3833C129.114 30.7164 129.683 31.2228 130.092 31.85C130.735 32.8332 131.167 33.9395 131.36 35.0986C131.383 35.2161 131.444 35.3226 131.534 35.401C131.625 35.4794 131.739 35.5253 131.858 35.5313H131.997C132.123 35.4921 132.23 35.4072 132.296 35.2931C132.363 35.1791 132.384 35.0443 132.356 34.9153C132.146 33.5768 131.645 32.3004 130.891 31.1753C130.621 30.8094 130.309 30.477 129.96 30.1853C129.895 30.1304 129.844 30.0602 129.812 29.9809C129.78 29.9016 129.768 29.8156 129.777 29.7306C129.787 29.6439 129.819 29.5609 129.868 29.4893C129.918 29.4176 129.985 29.3594 130.063 29.32L130.195 29.2613L130.363 29.1733C131.047 28.7833 131.609 28.2104 131.986 27.5186C132.362 26.8269 132.539 26.0439 132.496 25.2573C132.517 24.467 132.385 23.6801 132.107 22.94Z" fill="#0163A6"/>
<path d="M146.321 20.2487C146.239 20.1948 146.142 20.1667 146.043 20.168C145.959 20.1688 145.877 20.1899 145.803 20.2295C145.729 20.2691 145.665 20.326 145.618 20.3953L140.877 27.494C140.831 27.5662 140.767 27.6256 140.691 27.6666C140.616 27.7076 140.531 27.7289 140.445 27.7287C140.36 27.7259 140.276 27.7032 140.201 27.6624C140.126 27.6217 140.062 27.564 140.013 27.494L135.302 20.4027C135.255 20.3305 135.191 20.2711 135.115 20.2301C135.04 20.1891 134.955 20.1678 134.869 20.168C134.767 20.1678 134.668 20.1985 134.584 20.256C134.471 20.3372 134.394 20.4585 134.368 20.5949C134.342 20.7313 134.369 20.8725 134.444 20.9893L139.844 29.056C139.898 29.1419 139.929 29.2406 139.932 29.342V34.9153C139.934 35.0516 139.989 35.1819 140.084 35.2789C140.18 35.3759 140.309 35.4322 140.445 35.436C140.514 35.437 140.582 35.4242 140.645 35.3984C140.709 35.3726 140.767 35.3343 140.815 35.2857C140.864 35.2372 140.902 35.1794 140.928 35.1158C140.954 35.0521 140.966 34.984 140.965 34.9153V29.342C140.965 29.24 140.996 29.1403 141.053 29.056L146.475 20.9453C146.54 20.8306 146.56 20.6961 146.531 20.5676C146.503 20.4391 146.428 20.3256 146.321 20.2487Z" fill="#0163A6"/>
<path d="M159.994 35.7435C159.744 35.8478 159.464 35.8527 159.211 35.7573C158.958 35.6619 158.75 35.4734 158.631 35.2302L157.232 32.0989C155.945 31.7756 154.6 31.7556 153.304 32.0402C152.224 32.2537 151.191 32.6611 150.256 33.2429C149.235 33.8751 148.282 34.6125 147.413 35.4429C147.255 35.6317 147.036 35.7593 146.794 35.8035C146.552 35.8477 146.302 35.8057 146.087 35.6849C145.64 35.3989 145.706 34.8342 145.911 34.3649L152.33 20.4315C152.413 20.256 152.544 20.1076 152.708 20.0037C152.872 19.8999 153.063 19.8447 153.257 19.8447C153.451 19.8447 153.641 19.8999 153.805 20.0037C153.969 20.1076 154.1 20.256 154.184 20.4315L160.499 34.3649C160.614 34.6149 160.626 34.9002 160.531 35.1586C160.436 35.4169 160.243 35.6272 159.994 35.7435ZM153.246 23.2769L149.34 31.6002C150.486 30.9592 151.721 30.4921 153.004 30.2142C154.099 29.9811 155.224 29.9192 156.338 30.0309L153.246 23.2769Z" fill="#0163A6"/>
<path d="M172.999 35.8026C172.763 35.7972 172.536 35.7115 172.355 35.5595C172.173 35.4076 172.049 35.1985 172.003 34.9666C171.838 33.9039 171.454 32.8873 170.875 31.9819C170.522 31.445 170.031 31.0141 169.453 30.7352C169.086 30.5482 168.684 30.4384 168.273 30.4126C168.01 30.4126 167.724 30.4126 167.438 30.4126C167.18 30.415 166.93 30.3183 166.741 30.1424C166.551 29.9665 166.436 29.7246 166.42 29.4666C166.399 29.2248 166.468 28.984 166.614 28.7904C166.76 28.5967 166.973 28.4641 167.211 28.4179C167.55 28.3451 167.899 28.3253 168.244 28.3592C169.114 28.3413 169.968 28.1257 170.743 27.7286C171.181 27.4835 171.539 27.1173 171.774 26.6738C172.009 26.2302 172.111 25.7282 172.069 25.2279C172.087 24.5283 171.931 23.8352 171.615 23.2112C171.386 22.8263 171.067 22.5039 170.684 22.2726C170.207 22.0169 169.679 21.8715 169.138 21.8472H164.119V34.7832C164.119 35.0536 164.012 35.3128 163.821 35.504C163.63 35.6952 163.371 35.8026 163.1 35.8026C162.832 35.7988 162.575 35.6902 162.385 35.4998C162.194 35.3095 162.086 35.0524 162.082 34.7832V20.8499C162.084 20.5808 162.192 20.3234 162.383 20.1338C162.574 19.9443 162.832 19.8379 163.1 19.8379H169.138C169.544 19.8425 169.947 19.8967 170.34 19.9992C171.205 20.2021 171.998 20.6384 172.633 21.2606C173.1 21.7147 173.467 22.2618 173.71 22.8666C173.99 23.622 174.129 24.4223 174.12 25.2279C174.158 26.0812 173.96 26.9285 173.548 27.6763C173.135 28.4242 172.525 29.0437 171.783 29.4666L171.461 29.6279C171.831 29.9426 172.163 30.2995 172.45 30.6912C173.251 31.8618 173.779 33.1976 173.996 34.5999C174.023 34.7304 174.023 34.8649 173.998 34.9957C173.973 35.1265 173.922 35.251 173.848 35.362C173.775 35.4731 173.68 35.5685 173.57 35.6429C173.459 35.7172 173.335 35.769 173.205 35.7952C173.124 35.7806 173.073 35.8026 172.999 35.8026Z" fill="#0163A6"/>
<path d="M183.895 36.0662C182.771 36.0683 181.658 35.8386 180.627 35.3915C179.639 34.9689 178.742 34.3616 177.982 33.6022C177.216 32.85 176.608 31.9525 176.194 30.9622C175.756 29.9535 175.534 28.8645 175.542 27.7649C175.533 26.671 175.747 25.5869 176.17 24.5783C176.594 23.5698 177.217 22.6579 178.004 21.8982C179.583 20.3333 181.716 19.4557 183.939 19.4562C185.732 19.4457 187.477 20.0341 188.899 21.1282C189.111 21.2923 189.251 21.5332 189.288 21.7991C189.325 22.0651 189.256 22.3349 189.097 22.5509C188.933 22.7629 188.693 22.9028 188.428 22.9412C188.162 22.9795 187.893 22.9131 187.675 22.7562C186.607 21.9269 185.29 21.4825 183.939 21.4949C183.087 21.4942 182.244 21.6586 181.455 21.9789C179.936 22.6224 178.722 23.8245 178.062 25.3375C177.739 26.0955 177.575 26.9116 177.579 27.7355C177.574 28.5557 177.735 29.3683 178.052 30.1244C178.37 30.8806 178.837 31.5647 179.425 32.1355C180.009 32.7289 180.705 33.2004 181.472 33.5227C182.239 33.8449 183.063 34.0115 183.895 34.0129C184.63 34.0073 185.358 33.8758 186.049 33.6242C186.715 33.3788 187.334 33.0217 187.881 32.5682C188.087 32.4172 188.343 32.35 188.597 32.3802C188.85 32.4104 189.083 32.5356 189.249 32.7308C189.414 32.9259 189.499 33.1765 189.487 33.4321C189.475 33.6876 189.367 33.9292 189.185 34.1082C188.463 34.7129 187.642 35.1892 186.759 35.5162C185.845 35.8708 184.875 36.0572 183.895 36.0662Z" fill="#0163A6"/>
<path d="M204 20.85V34.7833C204 35.0537 203.893 35.3129 203.702 35.5041C203.511 35.6953 203.252 35.8027 202.982 35.8027C202.713 35.7989 202.456 35.6903 202.266 35.4999C202.075 35.3096 201.967 35.0525 201.963 34.7833V28.66H193.207V34.8053C193.207 35.0757 193.1 35.3349 192.909 35.5261C192.718 35.7173 192.459 35.8247 192.189 35.8247C191.919 35.8247 191.66 35.7173 191.469 35.5261C191.278 35.3349 191.17 35.0757 191.17 34.8053V20.872C191.17 20.6017 191.278 20.3424 191.469 20.1512C191.66 19.9601 191.919 19.8527 192.189 19.8527C192.459 19.8527 192.718 19.9601 192.909 20.1512C193.1 20.3424 193.207 20.6017 193.207 20.872V26.6507H201.963V20.85C201.965 20.5809 202.073 20.3235 202.264 20.134C202.455 19.9444 202.713 19.838 202.982 19.838C203.115 19.836 203.248 19.8608 203.372 19.9109C203.496 19.961 203.609 20.0353 203.704 20.1296C203.798 20.2239 203.874 20.3361 203.924 20.4598C203.975 20.5836 204.001 20.7162 204 20.85Z" fill="#0163A6"/>
<g opacity="0.2">
<path d="M17.402 49.5518L17.1309 49.4932C17.3507 49.5445 17.5851 49.5958 17.8636 49.6398L17.402 49.5518Z" fill="url(#paint0_linear_157_1413)"/>
<path d="M25.3882 45.8492C21.5415 45.3359 16.8888 45.7832 14.9984 46.8612C13.3645 47.7852 14.339 48.8779 17.1306 49.4939C14.5808 48.8925 13.7162 47.8732 15.2549 46.9932C17.072 45.9592 21.5562 45.5266 25.2637 46.0252C28.9712 46.5239 30.5098 47.7999 28.7294 48.8046C28.0663 49.1467 27.3584 49.3936 26.6265 49.5379L27.0808 49.4279C27.7418 49.2858 28.3803 49.0538 28.9785 48.7385C30.8322 47.6605 29.2423 46.3699 25.3882 45.8492Z" fill="url(#paint1_linear_157_1413)"/>
<path d="M30.0775 44.6531C25.1757 43.0178 15.9729 43.3405 12.4926 45.2691C11.4961 45.8998 10.4703 46.8751 13.0128 48.1145L13.3278 48.2538C11.4375 47.4398 11.0858 46.3765 12.7344 45.4378C15.2329 44.0225 21.4023 43.3991 26.5312 44.1325C31.6602 44.8658 33.7337 46.5305 31.2352 47.9458C31.0368 48.0616 30.8313 48.1645 30.6197 48.2538L30.9494 48.1071C34.4737 46.3325 31.1692 45.0125 30.0775 44.6531Z" fill="url(#paint2_linear_157_1413)"/>
<path d="M24.0767 47.4696C21.7101 47.1542 18.8452 47.4696 17.6802 48.0929C16.5152 48.7162 17.497 49.5595 19.8783 49.8675C22.2596 50.1755 25.1098 49.9116 26.2748 49.2442C27.4398 48.5769 26.4507 47.7996 24.0767 47.4696ZM26.0037 49.2662C24.912 49.8895 22.223 50.1462 19.9955 49.8455C17.7681 49.5449 16.8522 48.8042 17.944 48.1809C19.0357 47.5575 21.7247 47.3009 23.9522 47.6016C26.1796 47.9022 27.0955 48.6575 26.0037 49.2662Z" fill="url(#paint3_linear_157_1413)"/>
<path d="M27.7401 41.6621C21.241 40.7894 13.379 41.5521 10.1918 43.3634C8.46259 44.3461 8.46259 45.4461 9.87671 46.3774L10.0379 46.4801L10.1698 46.5681C8.70438 45.6441 8.70438 44.5514 10.4189 43.5687C13.5476 41.7867 21.2556 41.0461 27.6302 41.9334C33.8582 42.7694 36.5179 44.8227 33.7409 46.5754L34.0267 46.3921C36.789 44.5807 34.0414 42.5127 27.7401 41.6621Z" fill="url(#paint4_linear_157_1413)"/>
<path d="M28.7296 39.1755C21.1094 38.1415 11.8773 39.0362 8.12587 41.1995C6.33074 42.2189 6.11826 43.3409 7.22464 44.3382L7.48842 44.5729C6.3454 43.5755 6.5359 42.4609 8.33103 41.4415C11.9946 39.3369 21.1167 38.4569 28.649 39.4689C35.4924 40.3929 38.687 42.5562 36.445 44.5215L36.7161 44.2795C38.8849 42.2702 35.639 40.0995 28.7296 39.1755Z" fill="url(#paint5_linear_157_1413)"/>
<path d="M11.7158 36.9312C9.83717 37.2607 8.01751 37.8661 6.31571 38.7279C5.37052 39.3292 3.79521 40.3266 4.97486 41.9399L5.19467 42.2039C4.3081 41.1699 4.66713 40.0039 6.49889 38.9992C10.6826 36.6159 20.9991 35.6186 29.5425 36.7992C36.8696 37.7892 40.5331 40.0479 38.7306 42.1746L38.9578 41.9032C42.1304 37.1146 23.6002 34.5186 11.7158 36.9312Z" fill="url(#paint6_linear_157_1413)"/>
<path d="M30.3635 33.6019C20.897 32.3332 9.45209 33.4405 4.80674 36.0659C2.9823 37.1145 2.47673 38.2659 3.08488 39.2925L3.26805 39.5932C2.60862 38.5372 3.09953 37.3932 4.92397 36.3739C9.52536 33.7559 20.875 32.6559 30.2609 33.9245C37.991 34.9585 41.9842 37.2759 40.5921 39.5199L40.7753 39.2192C42.1528 36.9679 38.1229 34.6505 30.3635 33.6019Z" fill="url(#paint7_linear_157_1413)"/>
<path d="M30.9274 30.6028C20.8014 29.2388 8.5652 30.4268 3.59745 33.2501C1.80965 34.2694 1.20883 35.3548 1.64113 36.3961L1.78034 36.7261C1.32606 35.6848 1.91955 34.5848 3.71468 33.5654C8.64579 30.7641 20.8087 29.5834 30.8688 30.9401C38.8259 32.0108 43.0903 34.3428 42.0938 36.6601L42.233 36.3301C43.2002 34.0054 38.9139 31.6661 30.9274 30.6028Z" fill="url(#paint8_linear_157_1413)"/>
<path d="M31.3451 27.5156C20.7575 26.0489 7.96447 27.3249 2.76958 30.2803C1.05505 31.2556 0.388288 32.2969 0.637408 33.3016L0.725332 33.6536C0.454231 32.6416 1.12099 31.6003 2.85018 30.6176C8.02308 27.6843 20.7648 26.4449 31.3085 27.8603C39.3682 28.9456 43.7645 31.2483 43.1637 33.5876L43.2516 33.2283C43.8304 30.9329 39.3756 28.5936 31.3451 27.5156Z" fill="url(#paint9_linear_157_1413)"/>
<path d="M31.5651 24.3696C20.7211 22.9029 7.62765 24.1789 2.3082 27.2003C0.703575 28.1169 -0.00715049 29.0849 0.110082 30.0382V30.4123C0.00750362 29.4589 0.710902 28.4762 2.3082 27.5522C7.61299 24.5382 20.6918 23.2696 31.5139 24.7289C39.4491 25.7996 43.9699 28.0363 43.7281 30.3389V29.9649C44.0065 27.6622 39.4857 25.4403 31.5651 24.3696Z" fill="url(#paint10_linear_157_1413)"/>
<path d="M2.24206 24.4285C14.4709 18.1292 43.5007 21.0332 43.8671 26.9732V26.5845C42.4383 19.4785 11.7086 18.7452 2.2787 24.0692C0.813286 24.9052 0.0805806 25.7852 0.0439453 26.6505V27.0465C0.153851 26.1885 0.395644 25.5432 2.24206 24.4285Z" fill="url(#paint11_linear_157_1413)"/>
<path d="M2.55701 21.4C13.4304 15.8047 41.7275 17.3593 43.4713 23.6513L43.398 23.27C42.9511 21.1873 38.5988 19.244 31.3963 18.276C20.7354 16.8093 7.85447 18.0853 2.62295 21.0553C1.23814 21.928 0.81317 22.3093 0.424836 23.336L0.344238 23.7247C0.578704 23.1453 0.827825 22.4047 2.55701 21.4Z" fill="url(#paint12_linear_157_1413)"/>
<path d="M3.26786 18.5981C8.31621 15.7308 20.7649 14.5208 31.1107 15.9068C37.8149 16.8088 41.9621 18.5908 42.6435 20.5121L42.5775 20.3288L42.5116 20.1454C41.7789 18.2461 37.6831 16.4788 31.0521 15.5988C20.7942 14.2201 8.43344 15.4228 3.40708 18.2754C2.54115 18.6764 1.83618 19.3587 1.40679 20.2114L1.2749 20.5781C1.69246 19.7087 2.39616 19.0096 3.26786 18.5981Z" fill="url(#paint13_linear_157_1413)"/>
<path d="M4.33029 16.0167C9.09288 13.3034 20.8308 12.1667 30.5465 13.4794C36.5547 14.286 40.3867 15.8407 41.3026 17.5494L41.1121 17.212C40.1743 15.5254 36.3935 14 30.4659 13.2007C20.8382 11.9027 9.21743 13.032 4.48415 15.716C3.76703 16.0666 3.15717 16.6035 2.71833 17.2707L2.53516 17.6154C2.97359 16.926 3.59519 16.3724 4.33029 16.0167Z" fill="url(#paint14_linear_157_1413)"/>
<path d="M5.72226 13.6772C10.1185 11.1839 20.9113 10.1425 29.8503 11.3452C35.0598 12.0785 38.4889 13.3545 39.5806 14.8212L39.3388 14.4985C38.2544 13.0685 34.862 11.7925 29.755 11.1325C20.9625 9.94452 10.2504 10.9785 5.9201 13.4352C5.36022 13.7212 4.86224 14.1149 4.45468 14.5939L4.21289 14.9092C4.62703 14.4 5.14064 13.9808 5.72226 13.6772Z" fill="url(#paint15_linear_157_1413)"/>
<path d="M29.0151 9.54144C33.3161 10.1208 36.2616 11.1621 37.4559 12.3501L37.1628 12.0568C35.9685 10.9054 33.0817 9.90077 28.8979 9.33611C21.0286 8.27277 11.5181 9.19677 7.64943 11.3894C7.2838 11.5918 6.94424 11.838 6.6383 12.1228L6.34521 12.4161C6.66636 12.1093 7.02595 11.8456 7.41496 11.6314C11.3423 9.39477 21.014 8.46344 29.0151 9.54144Z" fill="url(#paint16_linear_157_1413)"/>
<path d="M28.0406 8.07507C31.3451 8.52241 33.7264 9.28507 34.9354 10.1651L34.591 9.91574C33.3821 9.0724 31.0814 8.3464 27.9087 7.92107C21.1459 7.0044 12.9762 7.7964 9.67902 9.6664C9.52483 9.75333 9.37561 9.84881 9.23207 9.9524L8.87305 10.2091C9.03424 10.0917 9.21009 9.98174 9.40792 9.8644C12.7784 7.95774 21.1312 7.15107 28.0406 8.07507Z" fill="url(#paint17_linear_157_1413)"/>
<path d="M26.9487 6.98945C28.6789 7.15931 30.3709 7.60494 31.9605 8.30945L31.5428 8.09679C30.032 7.45562 28.4343 7.04288 26.8022 6.87212C21.4901 6.13878 15.0789 6.73279 12.2287 8.14812L11.7964 8.36812C14.6979 6.85745 21.4022 6.24145 26.9487 6.98945Z" fill="url(#paint18_linear_157_1413)"/>
<path d="M25.7545 6.29295C26.5656 6.39656 27.3686 6.55582 28.1578 6.76961L27.5277 6.59362C26.8899 6.43874 26.2442 6.31878 25.5933 6.23428C22.34 5.78809 19.0319 5.95725 15.841 6.73295L15.3281 6.88695C18.7316 6.00984 22.2736 5.80805 25.7545 6.29295Z" fill="url(#paint19_linear_157_1413)"/>
</g>
<path d="M27.0441 6.57937C27.7051 6.72149 28.3436 6.95341 28.9418 7.26871C30.8322 8.33937 29.2422 9.63004 25.3882 10.1507C21.5341 10.6714 16.8888 10.2167 14.9984 9.13871C13.3132 8.18537 14.4049 7.04871 17.4017 6.44737L17.834 6.35938C14.7419 6.92404 13.5843 8.05337 15.2548 9.00671C17.0719 10.0407 21.5561 10.4734 25.2636 9.97471C28.9711 9.47604 30.5098 8.20004 28.7293 7.19537C28.0663 6.85322 27.3583 6.60634 26.6264 6.46204L27.0807 6.57204" fill="#0163A6"/>
<path d="M30.9274 7.91378C34.4811 9.65912 31.1766 10.9865 30.0848 11.3458C25.183 12.9811 15.9802 12.6585 12.4999 10.7298C11.5034 10.0991 10.4776 9.12378 13.0201 7.88445L13.3352 7.74512C11.4448 8.55912 11.0931 9.62245 12.7417 10.5611C15.2329 11.9765 21.4023 12.5998 26.5312 11.8664C31.6601 11.1331 33.7337 9.46845 31.2352 8.05312C31.0368 7.93735 30.8312 7.83447 30.6197 7.74512L30.9494 7.89178" fill="#0163A6"/>
<path d="M26.2676 6.73293C25.1026 6.0656 22.2377 5.79427 19.8711 6.1096C17.5045 6.42493 16.5153 7.22427 17.673 7.88427C18.8307 8.54427 21.7029 8.82293 24.0695 8.5076C26.4361 8.19227 27.4326 7.41493 26.2676 6.73293ZM23.9523 8.36827C21.7541 8.66893 19.0358 8.40493 17.9441 7.78893C16.8523 7.17293 17.7756 6.4176 19.9957 6.12427C22.2158 5.83093 24.9121 6.08027 26.0038 6.7036C27.0956 7.32693 26.1724 8.0896 23.9523 8.39027V8.36827Z" fill="#0163A6"/>
<path d="M34.0267 9.66583C36.7597 11.4478 34.0267 13.5158 27.7401 14.3665C21.241 15.2392 13.379 14.4765 10.1918 12.6652C8.46259 11.6825 8.46259 10.5825 9.87671 9.65116L10.0379 9.5485L10.1698 9.4605C8.70438 10.3845 8.70438 11.4772 10.4189 12.4598C13.5476 14.2125 21.2556 14.9532 27.6302 14.0658C33.8582 13.2298 36.5179 11.1765 33.7409 9.42383L34.0267 9.60716" fill="#0163A6"/>
<path d="M36.7161 11.7484C38.9142 13.7284 35.639 15.8991 28.7515 16.8231C21.1094 17.8571 11.8773 16.9991 8.12587 14.7991C6.33074 13.7798 6.11826 12.6578 7.22464 11.6604L7.48842 11.4258C6.3454 12.4231 6.5359 13.5378 8.33103 14.5571C11.9946 16.6618 21.1167 17.5418 28.649 16.5298C35.4924 15.6058 38.687 13.4424 36.445 11.4771L36.7161 11.7191" fill="#0163A6"/>
<path d="M38.9871 14.1254C42.1597 18.8847 23.6002 21.4587 11.745 19.0681C9.86646 18.7386 8.0468 18.1332 6.34501 17.2714C5.37051 16.6701 3.81717 15.6727 4.97485 14.0667L5.19466 13.8027C4.30808 14.8001 4.66711 15.9587 6.49887 17.0001C10.6826 19.3834 20.9991 20.3807 29.5425 19.2001C36.8695 18.2101 40.5331 15.9514 38.7306 13.8247L38.9577 14.0961" fill="#0163A6"/>
<path d="M40.8046 16.7793C42.1528 19.0306 38.1229 21.3479 30.3635 22.3966C20.897 23.6653 9.45209 22.5579 4.80674 19.9179C2.9823 18.8839 2.47673 17.7326 3.08488 16.7059L3.26805 16.4053C2.60862 17.4613 3.09953 18.6053 4.92397 19.6246C9.52536 22.2426 20.875 23.3426 30.2609 22.0739C37.991 21.0399 41.9842 18.7226 40.5921 16.4786L40.7753 16.7793" fill="#0163A6"/>
<path d="M42.2477 19.6685C43.2002 21.9931 38.9139 24.3325 30.9274 25.3958C20.8014 26.7598 8.5652 25.5718 3.59745 22.7485C1.80965 21.7291 1.20883 20.6438 1.64113 19.6025L1.78034 19.2725C1.32606 20.3138 1.91955 21.4138 3.71468 22.4331C8.6458 25.2345 20.8087 26.4151 30.8688 25.0585C38.826 23.9878 43.0903 21.6558 42.0938 19.3385L42.233 19.6685" fill="#0163A6"/>
<path d="M43.2516 22.771C43.8304 25.103 39.3756 27.4057 31.3451 28.4837C20.7575 29.9504 7.96447 28.6744 2.76958 25.719C1.05505 24.7437 0.388288 23.7024 0.637408 22.6977L0.725332 22.3457C0.454231 23.3577 1.12099 24.399 2.85018 25.3817C8.02308 28.315 20.7648 29.5544 31.3085 28.139C39.3682 27.0537 43.7645 24.751 43.1637 22.4117L43.2516 22.771Z" fill="#0163A6"/>
<path d="M43.8013 26.0342C44.0065 28.3369 39.4857 30.5589 31.5651 31.6296C20.7211 33.0962 7.62765 31.8202 2.3082 28.7989C0.703575 27.8822 -0.00715049 26.9142 0.110082 25.9609V25.5869C0.00750363 26.5402 0.710902 27.5229 2.3082 28.4469C7.61299 31.4609 20.6918 32.7296 31.5139 31.2702C39.4857 30.1996 44.0138 27.9996 43.7647 25.6602V26.0342" fill="#0163A6"/>
<path d="M43.8451 29.4151C42.4163 36.5211 11.6867 37.2545 2.25673 31.9305C0.791315 31.0945 0.058608 30.2145 0.0219727 29.3491V28.9531C0.175841 29.8111 0.417634 30.4198 2.26405 31.5711C14.4929 37.8705 43.5227 34.9665 43.8891 29.0265V29.4151" fill="#0163A6"/>
<path d="M43.3834 32.7154C42.9364 34.7981 38.5842 36.7414 31.3817 37.7094C20.7208 39.1761 7.83983 37.9001 2.60831 34.9301C1.22349 34.0574 0.798522 33.6761 0.410188 32.6494L0.32959 32.2607C0.52742 32.8547 0.77654 33.5954 2.52771 34.5854C13.4011 40.1807 41.6982 38.6261 43.442 32.3341L43.3687 32.7154" fill="#0163A6"/>
<path d="M42.5409 35.6702L42.475 35.8536C41.7423 37.7529 37.6464 39.5202 31.0155 40.4002C20.7576 41.7789 8.39682 40.5762 3.37046 37.7236C2.50452 37.3226 1.79956 36.6403 1.37017 35.7876L1.23828 35.4209C1.66505 36.2964 2.38248 36.9963 3.26788 37.4009C8.31622 40.2682 20.7649 41.4782 31.1107 40.0922C37.815 39.1902 41.9621 37.4082 42.6435 35.4869L42.5776 35.6702" fill="#0163A6"/>
<path d="M41.1121 38.7871C40.1743 40.4738 36.3935 41.9991 30.4659 42.7985C20.8382 44.0965 9.21743 42.9671 4.48415 40.2831C3.76703 39.9326 3.15717 39.3956 2.71833 38.7285L2.53516 38.3838C2.97359 39.0732 3.59519 39.6267 4.33029 39.9825C9.09288 42.6958 20.8308 43.8325 30.5465 42.5198C36.5547 41.7131 40.3867 40.1585 41.3026 38.4498L41.1121 38.7871Z" fill="#0163A6"/>
<path d="M39.3388 41.5005C38.2324 42.9671 34.862 44.2065 29.755 44.8958C20.9625 46.0838 10.2504 45.0498 5.9201 42.5931C5.36022 42.3072 4.86224 41.9134 4.45468 41.4345L4.21289 41.1191C4.61705 41.6131 5.11514 42.0219 5.6783 42.3218C10.0745 44.8151 20.8673 45.8565 29.8063 44.6538C35.0159 43.9205 38.4449 42.6445 39.5366 41.1778L39.2948 41.5005" fill="#0163A6"/>
<path d="M37.1628 43.9423C35.9685 45.0937 33.0817 46.0983 28.8979 46.663C21.0286 47.7263 11.5181 46.8023 7.64943 44.6097C7.2838 44.4074 6.94424 44.1611 6.6383 43.8763L6.34521 43.583C6.66636 43.8898 7.02595 44.1536 7.41496 44.3677C11.3349 46.5677 21.0067 47.5283 29.0078 46.4503C33.3088 45.871 36.2543 44.8297 37.4486 43.6417L37.1555 43.935" fill="#0163A6"/>
<path d="M34.591 46.0834C33.3821 46.9267 31.0814 47.6527 27.9088 48.0781C21.1459 48.9947 12.9762 48.2027 9.66438 46.3181C9.51018 46.2311 9.36097 46.1357 9.21743 46.0321L8.8584 45.7754C9.01959 45.8927 9.19544 46.0027 9.39327 46.1201C12.7784 48.0414 21.1166 48.8481 28.0406 47.9241C31.3451 47.4767 33.7264 46.7141 34.9354 45.8341L34.591 46.0834Z" fill="#0163A6"/>
<path d="M31.5428 47.9022C30.032 48.5434 28.4343 48.9561 26.8022 49.1269C21.4901 49.8602 15.0789 49.2662 12.2287 47.8509L11.7964 47.6309C14.7272 49.1415 21.3875 49.7575 26.9487 49.0095C28.6789 48.8397 30.3709 48.394 31.9605 47.6895L31.5428 47.9022Z" fill="#0163A6"/>
<path d="M27.5277 49.4056C26.8899 49.5605 26.2442 49.6805 25.5933 49.765C22.34 50.2112 19.0319 50.042 15.841 49.2663L15.3281 49.1123C18.7316 49.9894 22.2736 50.1912 25.7545 49.7063C26.5656 49.6027 27.3686 49.4434 28.1578 49.2296L27.5277 49.4056Z" fill="#0163A6"/>
<path d="M14.874 31.7324C16.061 31.7324 17.2333 31.7324 18.413 31.7324H21.93H25.447C26.6266 31.7324 27.799 31.7324 28.9859 31.7838C27.8282 32.0329 26.656 32.2093 25.4763 32.3118C24.2966 32.4144 23.1096 32.4658 21.93 32.4584C20.7503 32.4511 19.5633 32.3998 18.3837 32.2898C17.2029 32.1811 16.0304 31.995 14.874 31.7324Z" fill="#0163A6"/>
<path d="M16.4419 35.0251C17.3651 34.9444 18.2737 34.9224 19.1895 34.9004C20.1054 34.8784 21.014 34.9004 21.9225 34.9004C22.8311 34.9004 23.7396 34.9004 24.6555 34.9517C25.5714 35.0031 26.48 35.0177 27.4032 35.1131C26.5032 35.3154 25.5898 35.4526 24.6702 35.5237C23.7543 35.6044 22.8384 35.6337 21.9152 35.6264C20.992 35.6191 20.0834 35.5751 19.1676 35.4871C18.2496 35.3952 17.3389 35.2408 16.4419 35.0251Z" fill="#0163A6"/>
<path d="M13.98 30.0527C15.3135 30.0527 16.6397 30.1187 17.9586 30.1481C19.2774 30.1774 20.6036 30.1481 21.9298 30.1481C23.256 30.1481 24.5749 30.1481 25.8938 30.1481C27.2127 30.1481 28.5462 30.0894 29.8797 30.0747C28.5724 30.3321 27.2513 30.5133 25.9231 30.6174C24.5896 30.7347 23.256 30.7861 21.9298 30.7787C20.6036 30.7714 19.2628 30.7201 17.9366 30.6027C16.6078 30.5001 15.2864 30.3165 13.98 30.0527Z" fill="#0163A6"/>
<path d="M15.6943 33.3896C16.7421 33.3896 17.7752 33.3896 18.8157 33.3896H25.0656C26.1061 33.3896 27.1465 33.3896 28.1943 33.3896C27.1636 33.5689 26.1241 33.6937 25.0803 33.7637C24.5601 33.8076 24.0399 33.8297 23.5196 33.8517C22.9994 33.8737 22.4719 33.8517 21.9516 33.8517H20.3837C19.8634 33.8517 19.3432 33.8003 18.823 33.7637C17.7742 33.6949 16.7298 33.57 15.6943 33.3896Z" fill="#0163A6"/>
<path d="M17.0718 36.5278C17.8851 36.4764 18.6984 36.4618 19.5117 36.4544C20.325 36.4471 21.131 36.4544 21.9369 36.4544H24.3622C25.1755 36.4544 25.9888 36.4544 26.8021 36.5351C25.9997 36.679 25.1901 36.7794 24.3769 36.8358C23.5636 36.8944 22.7502 36.9311 21.9369 36.9311C21.1236 36.9311 20.3103 36.9311 19.497 36.8358C18.6833 36.7806 17.8735 36.6778 17.0718 36.5278Z" fill="#0163A6"/>
<path d="M10.1701 9.43164C9.95757 9.63697 9.74508 9.82764 9.55458 10.0403C9.35339 10.2462 9.20506 10.4978 9.12228 10.7736C9.09293 10.8991 9.09293 11.0296 9.12228 11.155C9.15319 11.2838 9.20786 11.4056 9.28348 11.5143C9.44564 11.7402 9.64076 11.9404 9.86232 12.1083C10.0938 12.2883 10.3387 12.4501 10.595 12.5923C10.8442 12.7292 11.1011 12.8517 11.3644 12.959C11.8992 13.179 12.4488 13.355 12.9983 13.553C12.4212 13.4605 11.8526 13.3207 11.2984 13.135C11.0176 13.0447 10.7454 12.9293 10.4851 12.7903C10.3531 12.7233 10.2258 12.6473 10.1041 12.563C9.97955 12.475 9.86232 12.3943 9.74508 12.299C9.5031 12.1142 9.29275 11.8913 9.12228 11.639C9.03704 11.5044 8.97742 11.3552 8.94643 11.199C8.90262 11.0431 8.90262 10.8782 8.94643 10.7223C9.05728 10.437 9.23882 10.1847 9.47398 9.98897C9.69057 9.78466 9.92335 9.59827 10.1701 9.43164Z" fill="#0163A6"/>
<path d="M30.8618 13.5893C31.3967 13.3987 31.9316 13.208 32.4518 13.0027C32.9598 12.7996 33.45 12.5543 33.9172 12.2693C34.147 12.121 34.3607 11.949 34.5547 11.756C34.7452 11.5724 34.8799 11.3385 34.943 11.0813C34.9723 10.9559 34.9723 10.8254 34.943 10.7C34.9302 10.6354 34.9131 10.5717 34.8917 10.5094C34.8917 10.4507 34.8404 10.3847 34.8038 10.326C34.6693 10.0819 34.4988 9.85939 34.2982 9.66602C34.5435 9.8138 34.7575 10.0081 34.9283 10.238C34.9742 10.2971 35.0136 10.361 35.0456 10.4287C35.08 10.4965 35.107 10.5678 35.1262 10.6414C35.1716 10.7884 35.1841 10.9436 35.1628 11.096C35.1415 11.2492 35.0891 11.3964 35.0089 11.5287C34.9752 11.5954 34.936 11.6592 34.8917 11.7193C34.8493 11.7788 34.8028 11.8352 34.7525 11.888C34.5523 12.1016 34.3258 12.2889 34.0784 12.4453C33.8442 12.5994 33.5993 12.7366 33.3457 12.856C33.0819 12.9733 32.8181 13.076 32.547 13.1713C31.9965 13.3525 31.4332 13.4922 30.8618 13.5893Z" fill="#0163A6"/>
<path d="M29.6382 15.1808C30.4222 14.9901 31.2062 14.7921 31.9755 14.5721C32.744 14.3497 33.4957 14.0728 34.2249 13.7435C34.5857 13.5784 34.9314 13.3821 35.258 13.1568C35.417 13.0446 35.5665 12.9195 35.705 12.7828C35.8419 12.6494 35.958 12.4961 36.0494 12.3281C36.1453 12.1634 36.1958 11.9761 36.1958 11.7855C36.1958 11.5948 36.1453 11.4075 36.0494 11.2428C35.8476 10.8993 35.5813 10.598 35.2654 10.3555L35.5145 10.5315L35.639 10.6195L35.749 10.7221C35.8258 10.7893 35.8991 10.8602 35.9688 10.9348C36.0386 11.0129 36.1023 11.0962 36.1593 11.1841C36.2767 11.3638 36.345 11.5711 36.3571 11.7855C36.367 12.0027 36.3242 12.219 36.2325 12.4161C36.1859 12.5106 36.132 12.6013 36.0713 12.6875C36.0112 12.7727 35.9451 12.8536 35.8735 12.9295C35.7279 13.0804 35.5712 13.2202 35.4046 13.3475C35.0701 13.585 34.7145 13.7912 34.3422 13.9635C33.6018 14.2992 32.8315 14.5644 32.0415 14.7555C31.2497 14.9458 30.4471 15.0878 29.6382 15.1808Z" fill="#0163A6"/>
<path d="M8.79258 10.3994C8.64604 10.5241 8.49217 10.6561 8.35296 10.7881C8.28322 10.8579 8.21718 10.9313 8.15513 11.0081L8.07453 11.1254L8.00126 11.2501C7.91143 11.4151 7.8589 11.5978 7.84739 11.7854C7.84426 11.9698 7.88178 12.1526 7.9573 12.3207C8.12859 12.6539 8.38048 12.9387 8.69 13.1494C9.01053 13.3659 9.35168 13.5502 9.70847 13.6994C10.0602 13.8681 10.4412 14.0074 10.7929 14.1467C11.1446 14.2861 11.5256 14.4034 11.9066 14.5207C12.6393 14.7554 13.4233 14.9534 14.1853 15.1441C13.797 15.1001 13.4086 15.0341 13.013 14.9681C12.6173 14.9021 12.251 14.7994 11.8773 14.6967C11.106 14.5014 10.3534 14.2388 9.62787 13.9121C9.258 13.7512 8.90464 13.5547 8.57277 13.3254C8.23263 13.0879 7.96198 12.7639 7.78878 12.3867C7.70985 12.189 7.67726 11.9757 7.69352 11.7634C7.69352 11.7121 7.69352 11.6607 7.69352 11.6094V11.5287V11.4554C7.70674 11.4065 7.72645 11.3597 7.75214 11.3161L7.82541 11.1841C8.08467 10.853 8.41529 10.5848 8.79258 10.3994Z" fill="#0163A6"/>
<path d="M7.48104 11.4561C7.31104 11.6272 7.15428 11.8111 7.01211 12.0061C6.94886 12.1021 6.89254 12.2026 6.84358 12.3067L6.78497 12.4681C6.78497 12.5194 6.78497 12.5781 6.78497 12.6294C6.75845 12.8435 6.79674 13.0606 6.89487 13.2527C6.99644 13.4517 7.13012 13.6326 7.29053 13.7881C7.63175 14.1014 8.01681 14.3633 8.43355 14.5654C8.85479 14.7834 9.29056 14.9721 9.73777 15.1301C10.1847 15.3061 10.639 15.4527 11.1006 15.5847C11.5622 15.7167 12.0238 15.8487 12.4854 15.9734C13.416 16.2154 14.3611 16.4207 15.3063 16.6554C14.323 16.6272 13.3432 16.5243 12.3755 16.3474C11.4114 16.1831 10.4629 15.9378 9.53994 15.6141C9.08496 15.4266 8.64204 15.2111 8.21374 14.9687L7.8767 14.8001C7.76715 14.7334 7.66192 14.66 7.56164 14.5801C7.45903 14.5082 7.36114 14.4298 7.26855 14.3454L7.12934 14.2061C7.08169 14.1632 7.03759 14.1167 6.99745 14.0667C6.81739 13.8727 6.67568 13.6462 6.57981 13.3994C6.48491 13.1437 6.46708 12.8658 6.52852 12.6001C6.5461 12.5351 6.56814 12.4714 6.59446 12.4094L6.68239 12.2334C6.74993 12.1253 6.82851 12.0245 6.91685 11.9327C7.00259 11.842 7.09573 11.7586 7.19528 11.6834L7.48104 11.4561Z" fill="#0163A6"/>
<path d="M28.561 16.6917C29.5355 16.4644 30.5027 16.2517 31.4919 16.0024L32.2246 15.819L32.9573 15.6137C33.4335 15.4744 33.9025 15.3204 34.3567 15.1444C34.8115 14.979 35.2546 14.783 35.6829 14.5577C36.0908 14.3439 36.4638 14.0695 36.7893 13.7437C36.9502 13.5863 37.0795 13.3997 37.1703 13.1937C37.2581 12.9879 37.2811 12.7602 37.2363 12.541C37.1862 12.3118 37.0862 12.0964 36.9432 11.9104C36.7942 11.712 36.6327 11.5234 36.4596 11.3457L36.76 11.5657C36.862 11.6434 36.9576 11.7293 37.0458 11.8224C37.2351 12.0077 37.3803 12.2333 37.4707 12.4824C37.5513 12.7477 37.5513 13.031 37.4707 13.2964C37.3887 13.5662 37.2515 13.8159 37.0677 14.0297C36.7211 14.4181 36.3095 14.7432 35.8515 14.9904C35.4063 15.2371 34.9434 15.4504 34.4666 15.6284C33.515 15.9751 32.5341 16.2353 31.5358 16.4057C30.5526 16.5738 29.5583 16.6693 28.561 16.6917Z" fill="#0163A6"/>
<path d="M6.29424 12.5996C6.20632 12.7096 6.11106 12.8196 6.03047 12.9369C5.94373 13.0427 5.86994 13.1584 5.81065 13.2816C5.68458 13.5225 5.64328 13.799 5.69342 14.0663C5.75358 14.321 5.87422 14.5575 6.04512 14.7556L6.17701 14.9023L6.32355 15.0416C6.4235 15.1309 6.52871 15.2142 6.63861 15.2909C7.09817 15.6053 7.58931 15.8708 8.10402 16.0829C8.6185 16.2955 9.14442 16.4791 9.67934 16.6329C10.2069 16.8089 10.7564 16.9629 11.2986 17.0949C11.8408 17.2269 12.3977 17.3589 12.9472 17.4909C14.0536 17.7256 15.1453 17.9309 16.2884 18.1509C15.1475 18.1328 14.0092 18.0372 12.8813 17.8649C11.7483 17.7048 10.629 17.4597 9.5328 17.1316C8.41311 16.8072 7.35909 16.2884 6.4188 15.5989C6.18465 15.4135 5.97749 15.1963 5.80333 14.9536C5.61091 14.6942 5.49195 14.3877 5.45896 14.0663C5.43396 13.757 5.51682 13.4486 5.69342 13.1936C5.86468 12.9682 6.06696 12.7682 6.29424 12.5996Z" fill="#0163A6"/>
<path d="M27.5718 18.18C28.1433 18.0553 28.7148 17.96 29.2863 17.8573C29.8578 17.7547 30.4147 17.6373 30.9789 17.52C31.543 17.4027 32.1072 17.278 32.6641 17.1313C33.2209 16.9847 33.7705 16.838 34.3127 16.662C34.8584 16.4947 35.3942 16.2964 35.9173 16.068C36.4338 15.8477 36.9252 15.5724 37.3827 15.2467C37.604 15.0874 37.8014 14.8972 37.9689 14.682C38.1423 14.4722 38.2539 14.2183 38.2913 13.9487C38.321 13.6767 38.2646 13.4022 38.1301 13.164C37.9909 12.9023 37.8239 12.6564 37.6318 12.4307C37.8638 12.6128 38.0708 12.8249 38.2473 13.0613C38.4308 13.315 38.5284 13.6208 38.5257 13.934C38.5114 14.2488 38.4099 14.5535 38.2327 14.814C38.0611 15.0696 37.8538 15.2992 37.6172 15.496C36.6708 16.2122 35.6001 16.7468 34.4592 17.0727C33.895 17.2413 33.3308 17.3953 32.7593 17.5273C32.1878 17.6593 31.6163 17.7547 31.0448 17.8427C30.4733 17.9307 29.8871 17.9893 29.3083 18.0407C28.7295 18.092 28.1579 18.1653 27.5718 18.18Z" fill="#0163A6"/>
<path d="M5.19495 13.7949C5.10016 13.9206 5.01446 14.053 4.93851 14.1909C4.85973 14.3253 4.80284 14.4713 4.76998 14.6236C4.7124 14.9162 4.75907 15.2198 4.90187 15.4816C5.03918 15.7593 5.22818 16.0082 5.45873 16.2149C5.68722 16.4206 5.93229 16.607 6.19143 16.7723C6.31748 16.8578 6.44973 16.9338 6.5871 16.9996L7.00474 17.1976C7.29294 17.3247 7.58602 17.442 7.88398 17.5496C8.47015 17.7769 9.0783 17.9603 9.68644 18.1363C10.9101 18.4809 12.1557 18.7523 13.4086 18.9943C14.6615 19.2363 15.9291 19.4489 17.1967 19.6763C15.9078 19.6906 14.6196 19.6097 13.3426 19.4343C12.0562 19.2847 10.7827 19.0396 9.53257 18.7009C8.90391 18.5238 8.28512 18.3133 7.67883 18.0703C7.37842 17.9383 7.07801 17.8063 6.78493 17.6596C6.63838 17.5789 6.49184 17.5056 6.3453 17.4176C6.20059 17.3332 6.06111 17.2402 5.92766 17.1389C5.66179 16.9415 5.41633 16.7179 5.19495 16.4716C4.95815 16.2223 4.76937 15.9315 4.6381 15.6136C4.51451 15.2825 4.51451 14.918 4.6381 14.5869C4.7006 14.4295 4.78442 14.2815 4.88722 14.1469C4.9396 14.0847 4.99589 14.0259 5.05574 13.9709L5.19495 13.7949Z" fill="#0163A6"/>
<path d="M26.6777 19.6392C27.9307 19.4119 29.1836 19.2139 30.4292 18.9792C31.6748 18.7445 32.9131 18.4806 34.0927 18.1506C34.6935 17.9819 35.3017 17.8059 35.8878 17.5932C36.4729 17.394 37.0413 17.1488 37.5877 16.8599C37.847 16.7141 38.0922 16.5447 38.3204 16.3539C38.5574 16.1732 38.7607 15.9523 38.9213 15.7012C39.0754 15.4531 39.1519 15.1645 39.1411 14.8726C39.1302 14.7204 39.1006 14.5702 39.0531 14.4252C39.0046 14.276 38.9433 14.1312 38.87 13.9926L38.6721 13.6992L38.9213 13.9486C39.1513 14.1882 39.3197 14.4801 39.4122 14.7992C39.4695 15.1429 39.4209 15.4959 39.2729 15.8112C39.1198 16.1185 38.914 16.3965 38.6648 16.6326C38.42 16.856 38.1579 17.0595 37.8808 17.2412C37.3262 17.5873 36.7398 17.8795 36.1296 18.1139C35.5249 18.3438 34.9086 18.5421 34.2832 18.7079C33.042 19.0339 31.7783 19.2668 30.5025 19.4046C29.2344 19.5705 27.9565 19.6489 26.6777 19.6392Z" fill="#0163A6"/>
<path d="M6.40381 18.8477C7.349 19.1703 8.30884 19.4197 9.26869 19.647C9.75227 19.757 10.2359 19.867 10.7341 19.9623C11.2323 20.0577 11.7013 20.153 12.1995 20.2337C12.6978 20.3143 13.174 20.4023 13.6649 20.483L14.3976 20.593L15.1303 20.703C16.1122 20.8497 17.1013 20.9817 18.0612 21.143C17.0644 21.1821 16.0662 21.1625 15.0717 21.0843C14.5735 21.0843 14.0752 20.989 13.6063 20.9377C13.1374 20.8863 12.6172 20.7983 12.1409 20.7103C11.6646 20.6223 11.1517 20.527 10.6755 20.4097C10.1992 20.2923 9.70099 20.1677 9.21007 20.0137C8.23338 19.7331 7.29187 19.3419 6.40381 18.8477Z" fill="#0163A6"/>
<path d="M25.7983 21.136C26.7728 20.982 27.74 20.85 28.7292 20.7106C29.2127 20.6373 29.6963 20.5713 30.1946 20.4906L31.66 20.2633L32.3927 20.1386L33.1254 20.0066L33.8581 19.8673L34.5908 19.7206C35.5507 19.5153 36.4958 19.2806 37.441 18.9873C36.5333 19.4555 35.5777 19.8243 34.5908 20.0873C34.1146 20.234 33.6383 20.344 33.1254 20.4613C32.6125 20.5786 32.1582 20.6593 31.66 20.74C31.1617 20.8206 30.6855 20.894 30.1946 20.9453L29.4619 21.026L28.7292 21.0846C27.7539 21.1559 26.7755 21.173 25.7983 21.136Z" fill="#0163A6"/>
<path d="M8.15527 21.0986L10.8443 21.5093L13.5187 21.8906L16.1931 22.2646C17.0943 22.3893 17.9882 22.514 18.8821 22.69C17.9754 22.762 17.0652 22.7792 16.1564 22.7413C15.2441 22.7059 14.3343 22.6226 13.4308 22.492C12.5277 22.3694 11.6324 22.1956 10.7491 21.9713C9.86131 21.7545 8.99359 21.4626 8.15527 21.0986Z" fill="#0163A6"/>
<path d="M24.978 22.6972C25.8793 22.5359 26.7658 22.4112 27.6597 22.2865L30.3268 21.9345C31.2134 21.8099 32.0999 21.6925 32.9865 21.5605L35.6609 21.1719C34.8285 21.5343 33.9653 21.8215 33.0818 22.0299C32.1997 22.2451 31.307 22.414 30.4074 22.5359C29.5061 22.6532 28.6049 22.7339 27.6964 22.7632C26.7898 22.7998 25.8818 22.7777 24.978 22.6972Z" fill="#0163A6"/>
<path d="M9.56935 23.0127C11.2249 23.3646 12.8977 23.629 14.5811 23.8047C16.259 24.0027 17.9515 24.1347 19.6441 24.2007V24.252C18.798 24.3823 17.9428 24.4437 17.0869 24.4354C16.6619 24.4354 16.237 24.4354 15.812 24.4354C15.387 24.4354 14.9621 24.3694 14.5371 24.3254L13.8996 24.2447L13.2695 24.1494L12.6101 23.9954L12.295 23.9294L11.9799 23.856C11.1435 23.6662 10.3267 23.3986 9.54004 23.0567L9.56935 23.0127Z" fill="#0163A6"/>
<path d="M24.231 24.2084C25.9089 24.1497 27.5941 24.0324 29.272 23.8417C30.9469 23.685 32.6125 23.4402 34.2617 23.1084V23.1524C33.4755 23.4918 32.6584 23.7546 31.8218 23.9371C31.4042 24.0397 30.9865 24.1057 30.5689 24.1864C30.1512 24.2671 29.7263 24.3037 29.3086 24.3624L28.0337 24.4651H27.4036H26.7661C25.9121 24.4721 25.059 24.4059 24.2163 24.2671L24.231 24.2084Z" fill="#0163A6"/>
<path d="M10.8149 24.8613C11.6282 24.8613 12.4196 24.942 13.2182 24.9933L15.5922 25.1987C16.3835 25.272 17.1748 25.3527 17.9662 25.4407C18.7575 25.536 19.5488 25.6313 20.3474 25.778C19.548 25.8792 18.7426 25.9258 17.9368 25.9173C17.1382 25.9173 16.3322 25.9173 15.5336 25.8073C14.7349 25.6973 13.9436 25.6167 13.1523 25.47C12.3591 25.3259 11.5777 25.1224 10.8149 24.8613Z" fill="#0163A6"/>
<path d="M23.5273 25.8002C24.3187 25.6535 25.11 25.5655 25.9013 25.4775C26.6926 25.3895 27.4766 25.3089 28.2679 25.2429C29.0593 25.1769 29.8433 25.0669 30.6346 25.0669C31.4259 25.0669 32.2172 24.9422 33.0232 24.9495C32.2586 25.1922 31.4806 25.3905 30.6932 25.5435C29.9079 25.6916 29.1155 25.7993 28.3192 25.8662C27.523 25.9395 26.7244 25.9762 25.9233 25.9762C25.1217 25.9688 24.3214 25.91 23.5273 25.8002Z" fill="#0163A6"/>
<path d="M11.9653 26.6064C12.698 26.7091 13.4307 26.7971 14.2074 26.8851C14.9841 26.9731 15.7168 27.0318 16.4641 27.0904C17.2115 27.1491 17.9735 27.2004 18.7282 27.2371L20.9923 27.3178V27.3691C20.2418 27.5213 19.4791 27.6048 18.7136 27.6184C18.3325 27.6184 17.9808 27.6184 17.5705 27.6184C17.1602 27.6184 16.8378 27.6184 16.4275 27.5671L15.2918 27.4498C14.9181 27.3911 14.5591 27.3398 14.1708 27.2591C13.4197 27.1262 12.6835 26.9198 11.9727 26.6431L11.9653 26.6064Z" fill="#0163A6"/>
<path d="M22.8682 27.3256C23.6009 27.3256 24.3336 27.2816 25.1249 27.2449C25.9162 27.2082 26.5903 27.1716 27.3816 27.1129C28.173 27.0542 28.847 26.9956 29.631 26.9149C30.415 26.8342 31.0965 26.7462 31.8731 26.6436V26.6949C31.1594 26.9609 30.4239 27.1646 29.675 27.3036C29.3087 27.3769 28.9423 27.4209 28.554 27.4796C28.1656 27.5382 27.8213 27.5602 27.4183 27.5969C27.0153 27.6336 26.6856 27.6409 26.2826 27.6482H25.44H25.1542C24.3906 27.6296 23.6303 27.5412 22.8828 27.3842L22.8682 27.3256Z" fill="#0163A6"/>
<path d="M13.0054 28.3516C14.5074 28.3956 15.9875 28.4542 17.4749 28.4909C18.9623 28.5276 20.4057 28.5496 21.9224 28.5496C23.4391 28.5496 24.8532 28.5496 26.3773 28.5056C27.9013 28.4616 29.3447 28.4249 30.8468 28.3882C29.3837 28.7166 27.9003 28.9469 26.4066 29.0776C24.9412 29.2144 23.4464 29.2829 21.9224 29.2829C20.3984 29.2829 18.9037 29.2096 17.4382 29.0629C15.9469 28.9213 14.4662 28.6837 13.0054 28.3516Z" fill="#0163A6"/>
<path d="M18.5376 40.7232C19.1091 40.6792 19.6733 40.6572 20.2375 40.6426H21.0874H22.78C23.0657 40.6426 23.3515 40.6426 23.6299 40.6426C24.2014 40.6426 24.7656 40.6426 25.3371 40.7306C24.7729 40.8259 24.2014 40.8846 23.6372 40.9286L22.7873 40.9726H21.9374C21.6516 40.9726 21.3658 40.9726 21.0801 40.9726L20.2301 40.9286C19.6628 40.8891 19.0979 40.8206 18.5376 40.7232Z" fill="#0163A6"/>
<path d="M18.1274 39.4103C18.7649 39.3443 19.4024 39.315 20.0325 39.293C20.6626 39.271 21.3001 39.293 21.9375 39.293C22.575 39.293 23.1978 39.293 23.8352 39.293C24.4727 39.293 25.1028 39.3443 25.7403 39.4176C25.1138 39.5437 24.4799 39.6294 23.8426 39.6743C23.2051 39.7256 22.5676 39.7476 21.9375 39.7476C21.3074 39.7476 20.6626 39.7476 20.0251 39.667C19.3882 39.618 18.7546 39.5323 18.1274 39.4103Z" fill="#0163A6"/>
<path d="M17.6436 38.0173C18.3763 37.9366 19.109 37.8999 19.7977 37.8779C20.4865 37.8559 21.2192 37.8779 21.9372 37.8779C22.6553 37.8779 23.3587 37.8779 24.0767 37.9219C24.7948 37.9659 25.5421 37.9806 26.2235 38.0686C25.5192 38.2297 24.8042 38.34 24.084 38.3986C23.3513 38.4573 22.6186 38.4866 21.9299 38.4866C21.2411 38.4866 20.4645 38.4866 19.7831 38.3913C19.0624 38.3145 18.3476 38.1896 17.6436 38.0173Z" fill="#0163A6"/>
<path d="M18.8818 41.9327C19.3874 41.9327 19.9003 41.896 20.4059 41.8887H23.4612C23.9741 41.8887 24.4797 41.8887 24.9926 41.94C24.487 42.0133 23.9741 42.05 23.4686 42.0793C22.963 42.1087 22.4428 42.1233 21.9372 42.1233C21.4317 42.1233 20.9114 42.1233 20.4059 42.072C19.9003 42.0207 19.3874 42.028 18.8818 41.9327Z" fill="#0163A6"/>
<path d="M20.1055 44.2207C20.4132 44.2207 20.7136 44.2207 21.0214 44.2207H22.8678C23.1682 44.2207 23.4759 44.2207 23.7837 44.2207C23.4759 44.272 23.1755 44.3087 22.8678 44.3307C22.56 44.3527 22.2523 44.3307 21.9519 44.3307C21.6515 44.3307 21.3364 44.3307 21.036 44.3307C20.7356 44.3307 20.4059 44.272 20.1055 44.2207Z" fill="#0163A6"/>
</g>
<defs>
<linearGradient id="paint0_linear_157_1413" x1="17.1309" y1="49.5665" x2="17.8343" y2="49.5665" gradientUnits="userSpaceOnUse">
<stop stop-color="white"/>
<stop offset="0.5" stop-color="white" stop-opacity="0"/>
<stop offset="1" stop-color="white"/>
</linearGradient>
<linearGradient id="paint1_linear_157_1413" x1="14.2071" y1="47.5799" x2="29.7405" y2="47.5799" gradientUnits="userSpaceOnUse">
<stop stop-color="white"/>
<stop offset="0.5" stop-color="white" stop-opacity="0"/>
<stop offset="1" stop-color="white"/>
</linearGradient>
<linearGradient id="paint2_linear_157_1413" x1="11.4228" y1="45.9291" x2="32.5247" y2="45.9291" gradientUnits="userSpaceOnUse">
<stop stop-color="white"/>
<stop offset="0.5" stop-color="white" stop-opacity="0"/>
<stop offset="1" stop-color="white"/>
</linearGradient>
<linearGradient id="paint3_linear_157_1413" x1="17.1893" y1="48.6722" x2="26.7584" y2="48.6722" gradientUnits="userSpaceOnUse">
<stop stop-color="white"/>
<stop offset="0.5" stop-color="white" stop-opacity="0"/>
<stop offset="1" stop-color="white"/>
</linearGradient>
<linearGradient id="paint4_linear_157_1413" x1="8.85093" y1="43.9354" x2="35.0818" y2="43.9354" gradientUnits="userSpaceOnUse">
<stop stop-color="white"/>
<stop offset="0.5" stop-color="white" stop-opacity="0"/>
<stop offset="1" stop-color="white"/>
</linearGradient>
<linearGradient id="paint5_linear_157_1413" x1="6.54323" y1="41.6469" x2="37.3828" y2="41.6469" gradientUnits="userSpaceOnUse">
<stop stop-color="white"/>
<stop offset="0.5" stop-color="white" stop-opacity="0"/>
<stop offset="1" stop-color="white"/>
</linearGradient>
<linearGradient id="paint6_linear_157_1413" x1="4.54989" y1="39.1092" x2="39.3168" y2="39.1092" gradientUnits="userSpaceOnUse">
<stop stop-color="white"/>
<stop offset="0.5" stop-color="white" stop-opacity="0"/>
<stop offset="1" stop-color="white"/>
</linearGradient>
<linearGradient id="paint7_linear_157_1413" x1="2.85041" y1="36.3299" x2="41.061" y2="36.3299" gradientUnits="userSpaceOnUse">
<stop stop-color="white"/>
<stop offset="0.5" stop-color="white" stop-opacity="0"/>
<stop offset="1" stop-color="white"/>
</linearGradient>
<linearGradient id="paint8_linear_157_1413" x1="1.52389" y1="33.3821" x2="42.3796" y2="33.3821" gradientUnits="userSpaceOnUse">
<stop stop-color="white"/>
<stop offset="0.5" stop-color="white" stop-opacity="0"/>
<stop offset="1" stop-color="white"/>
</linearGradient>
<linearGradient id="paint9_linear_157_1413" x1="0.586118" y1="30.2876" x2="43.3029" y2="30.2876" gradientUnits="userSpaceOnUse">
<stop stop-color="white"/>
<stop offset="0.5" stop-color="white" stop-opacity="0"/>
<stop offset="1" stop-color="white"/>
</linearGradient>
<linearGradient id="paint10_linear_157_1413" x1="0.0734472" y1="27.0903" x2="43.8087" y2="27.0903" gradientUnits="userSpaceOnUse">
<stop stop-color="#0163A6"/>
<stop offset="0.5" stop-color="#0163A6"/>
<stop offset="1" stop-color="#0163A6"/>
</linearGradient>
<linearGradient id="paint11_linear_157_1413" x1="-1.70518e-05" y1="23.8125" x2="43.8671" y2="23.8125" gradientUnits="userSpaceOnUse">
<stop stop-color="#0163A6"/>
<stop offset="0.5" stop-color="#0163A6"/>
<stop offset="1" stop-color="#0163A6"/>
</linearGradient>
<linearGradient id="paint12_linear_157_1413" x1="0.380874" y1="20.7107" x2="43.4713" y2="20.7107" gradientUnits="userSpaceOnUse">
<stop stop-color="#0163A6"/>
<stop offset="0.5" stop-color="#0163A6"/>
<stop offset="1" stop-color="#0163A6"/>
</linearGradient>
<linearGradient id="paint13_linear_157_1413" x1="1.23827" y1="17.8061" x2="42.6068" y2="17.8061" gradientUnits="userSpaceOnUse">
<stop stop-color="#0163A6"/>
<stop offset="0.5" stop-color="#0163A6"/>
<stop offset="1" stop-color="#0163A6"/>
</linearGradient>
<linearGradient id="paint14_linear_157_1413" x1="2.53516" y1="15.1367" x2="41.3026" y2="15.1367" gradientUnits="userSpaceOnUse">
<stop stop-color="#0163A6"/>
<stop offset="0.5" stop-color="#0163A6"/>
<stop offset="1" stop-color="#0163A6"/>
</linearGradient>
<linearGradient id="paint15_linear_157_1413" x1="4.2422" y1="12.7459" x2="39.5806" y2="12.7459" gradientUnits="userSpaceOnUse">
<stop stop-color="#0163A6"/>
<stop offset="0.5" stop-color="#0163A6"/>
<stop offset="1" stop-color="#0163A6"/>
</linearGradient>
<linearGradient id="paint16_linear_157_1413" x1="6.35254" y1="10.6488" x2="37.4559" y2="10.6488" gradientUnits="userSpaceOnUse">
<stop stop-color="#0163A6"/>
<stop offset="0.5" stop-color="#0163A6"/>
<stop offset="1" stop-color="#0163A6"/>
</linearGradient>
<linearGradient id="paint17_linear_157_1413" x1="8.85839" y1="8.88174" x2="34.9354" y2="8.88174" gradientUnits="userSpaceOnUse">
<stop stop-color="#0163A6"/>
<stop offset="0.5" stop-color="#0163A6"/>
<stop offset="1" stop-color="#0163A6"/>
</linearGradient>
<linearGradient id="paint18_linear_157_1413" x1="11.7964" y1="7.46612" x2="31.9605" y2="7.46612" gradientUnits="userSpaceOnUse">
<stop stop-color="#0163A6"/>
<stop offset="0.5" stop-color="#0163A6"/>
<stop offset="1" stop-color="#0163A6"/>
</linearGradient>
<linearGradient id="paint19_linear_157_1413" x1="15.3281" y1="6.43961" x2="28.1578" y2="6.43961" gradientUnits="userSpaceOnUse">
<stop stop-color="#0163A6"/>
<stop offset="0.5" stop-color="#0163A6"/>
<stop offset="1" stop-color="#0163A6"/>
</linearGradient>
<clipPath id="clip0_157_1413">
<rect width="204" height="44" fill="white" transform="translate(0 6)"/>
</clipPath>
</defs>
</svg>
